<svg id="Layer_1" data-name="Layer 1" xmlns="http://www.w3.org/2000/svg" viewBox="0 0 494.64 724.57">
  <defs>
    <style>
      .cls-1, .cls-2 {
        fill: #dfe1e2;
      }

      .cls-1 {
        fill-rule: evenodd;
      }
    </style>
  </defs>
  <title>map</title>
  <g>
    <path class="cls-1" d="M334.35,382.75l-4.43-4.43-5.25-3.86-2.87-5.41,1.15-9.31.2-6.77-6.4-11.41-5,4.07.41,7.54L315.2,359l-1.53,2L310.76,358l-5-4.84-3.86-1.55-1.72,3.11,1.15,8.12-5.82-5.41-1.93,3.86,1,6.39,4.26,4.06,3.08.75,3.28-5.59,4.47,4.64-3.11,5,7.75,11.61,7.14-.95,2.5,4.84,3.49-5,3.11,1.72L329.14,393l-3.48,7.55,4.63-1.56,3.08-2.71,4.67-7.92L341.9,386l3.08.2-7.72,11.61,4.23,3.69-8.29,2.87-4.26,9.31,9.1.37-6.39,6.77-4.07,1.93-10.83.58-2.7,4.47,21.66,3.08-9.11,2.5-1.52,2,4.43,6.94,5.42.41L339.4,446l13.7-10.83,9.31-9.1-5.82,9.67-9.68,18.76-4.64,11.23L345,475l-6,12.18-4.43,7.55,3.08,2.91,3.28-.78L336.08,504l3.69,5.42-6.4,16.24-.17,11.24-4.63,4.63-1.19,7.72,10.83-.95,2.71-3.11,6-31.31,7.55-4.46L349.62,498l-1.73-5.21,1-5.05,2.1.58,5-5.41-1.72,6.39-1.56,6.36,1.35,5.05,4.84,4.26,8.3,9.28,1.76-5.79,2.91-8.73,1.15-6,4.06-2.14,4.84.41,5.58,3.48-4.63.17-4.64-.94-2.71,2.7-1.35,7,1.93,7.34-3.49,4.06,9.31,8.5,2.3,2.5.2,10.66-4.63,3.66-1.93,3.48-2.34,4.07-3.48,9.88-6.2,6.16-2.1,6.6,1.15,12.35-4.26-8.7-3.08,1-.41,4.84,1.19,6.57,6.94,8.12,1.93,8.9,3.35,1.9.91.34-4-15.78,5.89-3.28,7.12,5.52,1.66,1.25,12.58,9.29L397.41,593l-5.22-5.25,2.88-1.72,6.19,4.43,9.48,5.42,5.62,1.55,6.77-3.65,2.3-5.42,8.9.58,1-10.05,14.79.91c2.5-1.25,5-2.52,7.51-3.74,3.91-1.33,6.28-5,9.32-7.54,3.55-3.62,7.59-6.78,10.83-10.68,3.35-2.36,6-5.55,9.06-8.25,3-3,6.16-5.74,9.13-8.72,1.55-1.58,3.41-2.86,4.74-4.64-.2-1.67-1.24-3.11-1.86-4.65-1.53-3.52-3.25-7-4.77-10.48-.54-1,.39-1.88,1.09-2.5q6.51-5.75,13-11.45a2.38,2.38,0,0,1,1.08-.64l-1.43-2.69L504,499.59l-8.87-1L491,494.34l-5.82-2.1-2.5-4.67-7.55,1-4.06,6.4-4.84,1.93-5.79.17-5-2.51-6.38.16-12-2-11.38-6.31,2.21-2,9.42,3.93,11.94,1.95,7.83-4.05,2-4.86,9.69-6.87,5.55,3,10.85-7.87-13.79-7.1,2.86-2.45.68-4.19L470.4,455l-13,5.43,4.48-5.7,13.35-3,2.95,1.27,8.09-8.57,3.9-5.45,3.2-9.9L500.8,421l4.53-11.81,3.09-9.25,1.15-8.32,1.55-4.84,5.62-9.85,6.77-7.18-1-4.23-2.13-9.31-4.84-6.16-10.26.75-12.18,1L485,350.26l-10.43-1.93-5.21,1.93-5.41-.17-8-3.31-6.77.2-3.65,1.76-4.84,2.3-7.35,1-4.06,3.66-4.47,1.93-3.28-2.1-3.48,4.8-4.84,4.84-2.31-.37,5-7.34,4.84-8.9,11.41-14.69-5,.57-8.12,2.31-4.06.4,7.34-7,.2-5.62,6.37-2.71,1-4.23,9.68-7.54,5.78-4.07,3.49-4.84,3.66-3.28,7.37-3.89,4.64-4.23,1.52-6.2-4.8-1.55,5.58-13.74L450,266.33l2.51,4.26-.95,2.13L441.1,269l-9.65,3.28-14.72,1.76-9.85,2.13-8.12-4.47-4.84,2.34-5-2.34-8.29-5.21-3.29,3.28-3.89,7.75,5.41,6-5,1.36L371.11,287l2.71,8.9-8.91,2.3-5.61,1.15,4.26,6.77,1.73,4.84h-4.44l-4.84-.94,7.75,8.12,6.16,6.77-9.47.37-4.81,4.84-6.6-4.43-2.5,5.21-4.64-1-3.11,1.35v8.33l5.62,3.28-6,7.17,6.2,6.16,1.72,2.91-2.5.41-6.57-4.47-1.76,5-.57,5.78,3.86,7.75,8.12.58-4.81,5.79Z" transform="translate(-206.94 -266.33)"/>
    <path class="cls-1" d="M343.61,834.39l3.8,4v4.25l-4.25.61-3,2.43,4.25,4.55.76-2.73,7.44,1.21-4.86,2.59,2.74,3.79,4.86,3.34,5.16-4.7,3.79.91,3.65-1.52,2-5.17,1.52-1.36,11.39.15,3.79-2.43-.45,4.1,3.19,4.86,6.07-.91,1.37,1.82,4.55.46L396,857.17l-4.25-.61-2.28,2.13.76,3.34,5,2.88,3.34-1.67,7.44.15,1.67-3.64,1.06-1.06,6.23-1.07,5.77,13.52,3.95.3,5.46,6.07,11.69.92,8.36-1.07.15-4.1,9.72-8,5.46,1.51,8-3.94,4.06-4.53A4.37,4.37,0,0,1,477,857c-.31-3.49-.34-7-.44-10.51a31.33,31.33,0,0,0-.3-6c-.08-.75-.84-1.09-1.36-1.51-2.74-1.87-5.39-3.87-8.13-5.73-1.82-1.47-3.6,1.2-5.54.76a5.4,5.4,0,0,1-1-1.41c-2.22-4.35-4.49-8.68-6.63-13.06-.71-1.11-.24-2.41.14-3.54q3.42-9.69,6.8-19.4c-3.8-2.2-7.82-4-11.67-6.1-.86-.34-1.33-1.58-.46-2.18,3-2.32,6.1-4.41,9-6.77-1.16-.73-2.52-1.11-3.64-1.9-.72-.56-.28-1.45,0-2.12,1.92-4.46,4-8.84,5.84-13.32.4-.8-.36-1.4-.93-1.81-1.9-1.37-3.84-2.7-5.75-4.06a3.17,3.17,0,0,1-1.57-2c.88-2.63,2.51-4.93,3.61-7.47a3.35,3.35,0,0,1,2.81-2.25c3.66-.55,7.27-1.5,11-1.66a39.19,39.19,0,0,1,2.78,4.57,13.67,13.67,0,0,0,2.36-1c.58-1.37,0-2.89-.17-4.29A39.21,39.21,0,0,1,469,743c-1.11-.42-1.15-1.78-1.43-2.75-.59-2.38-.73-4.88-1.63-7.17-1.25-1.32-3.22-1.75-4.54-3a1.34,1.34,0,0,1,.14-1.84c.92-.92,2-1.68,2.9-2.61-2.94-2.26-6.05-4.27-9-6.49a4.58,4.58,0,0,1-1.52-2.2l-1-.55-7.9-7.14-14.88,5.17-6.83-.91-5.47-2.89.46,4.4-8.05,2.89-8,1.37,4.86-6.69-8.2.16-2.12-4.25-2-5.93-13.66,1.22-.91,6.22-5.92,1.07,4.55,6.37,3,.31,5.16,6.68,4.86,3.34-.15,7.89-10.33,7.75-2.43.45-10.78,12,1.37.76,7.59-2.43,3.8,3.19,2.27-1.52-.15-3,6.23-4.86,16.09-1.82-3.94,2.73.75,4.41-.75,3.34,4.7,6.38-.76,2.88-4.7,6.23,4.1,6.83.45,4.55-5,14L395.7,803l-7.29,3.34L379.14,813l-7.44.15-.91,1.52-3.19-.91-1.82,3.8-3,4.25-4.26-.76L355,823l-2.12-2.43-3.95.76-.61,4.71-11.54,4.86-.15,2.43,1.21,1.82Z" transform="translate(-206.94 -266.33)"/>
    <path class="cls-2" d="M607,851.88c2.06-1.27,4.56-.76,6.85-.76.29,1,.14,2.32,1,3.06,1.29,1.11,2.59,2.24,4,3.23.63.56,1.48.2,2.21.08a53.47,53.47,0,0,1,7.59-1.74c.72,1.79,1.44,3.58,2,5.41-1.16,1.69-2.74,3.05-3.84,4.78-1.23,3.85-2.77,7.61-4.11,11.43a6.7,6.7,0,0,1-3.84,4c-1.73-.27-3.15-1.52-4.79-2.1-1.3,1.1-2.49,2.32-3.73,3.49-.83-1-1.57-2.13-2.3-3.23-1-.13-2-.22-3.05-.34a25.48,25.48,0,0,0-1.3-3.41c-1.54-.09-2.21,1.79-3.27,2.67-.06-1.16.57-2.71-.65-3.45-3-2.13-6.25-3.9-9.21-6.08-.22-2.08,1.36-3.91,1.48-6-.36-1.54-1.06-3-1.52-4.47,2.39-.51,4.91-.37,7.25-1.11C601,855.74,603.91,853.66,607,851.88Z" transform="translate(-206.94 -266.33)"/>
    <polygon class="cls-1" points="0 347.91 6.4 346.29 9.13 341.86 17.15 341.6 18.01 339.72 23.21 336.31 16.64 334.26 16.3 332.55 14.85 332.3 12.72 327.6 15.45 327.6 18.18 324.62 21.16 327.94 26.46 324.79 33.45 324.62 31.75 323.08 31.75 319.92 34.82 318.3 36.87 313.95 36.19 311.47 36.44 308.06 38.66 305.33 39 302 43.95 297.05 50.95 297.05 56.75 299.35 62.3 285.19 66.06 287.49 72.88 287.92 76.21 284.59 81.67 284.16 85.94 280.83 91.23 280.83 98.31 284.93 103.09 282.63 107.7 287.58 107.45 297.48 109.15 296.11 111.89 298.16 112.14 301.83 111.03 302.08 111.54 303.54 113.08 303.71 119.39 314.12 120.42 318.3 122.3 318.39 120.67 314.63 122.64 314.63 126.31 319.58 126.48 323.59 124.6 325.21 118.37 328.2 114.7 334.6 114.87 336.56 117.09 334.86 121.61 330.76 132.28 330.68 134.67 337.08 136.63 338.36 136.81 343.48 139.19 345.78 137.4 359.01 136.21 358.67 132.28 354.66 132.54 352.27 133.9 351.33 133.56 346.89 132.37 343.39 131.43 343.22 131 341.43 128.78 340.23 126.39 339.38 125.97 342.62 127.42 344.59 129.21 347.4 129.64 349.71 129.29 354.31 125.8 357.81 126.31 358.84 129.04 357.13 131.51 355.77 135.7 360.63 128.53 370.1 126.05 367.63 119.74 367.88 117.18 371.04 118.2 373.69 117.01 380.69 107.53 387.09 105.14 386.15 105.66 385.12 103.09 385.12 100.11 380.94 93.79 381.28 93.11 383.76 87.22 384.1 79.88 386.75 76.38 383.16 77.41 381.28 76.55 379.58 78.77 376.25 74.93 371.9 72.97 374.54 68.1 366.6 65.71 365.24 66.82 364.13 66.48 359.52 62.3 356.88 57.78 354.4 54.36 359.35 52.23 360.29 49.76 363.11 52.74 367.03 52.74 370.44 47.71 371.98 47.79 376.33 43.52 380.86 41.99 380.52 37.72 376.59 35.93 378.72 30.89 378.64 24.41 371.9 18.52 372.24 15.62 370.62 15.19 364.3 11.35 363.53 9.22 357.9 6.91 358.92 0 347.91"/>
    <polygon class="cls-1" points="170.19 371.86 174.54 366.48 177.56 360.36 180.65 356.16 186.92 353.29 189.42 354.17 187.73 358.45 188.54 361.91 191.12 366.04 188.17 371.27 186.4 375.62 182.13 378.86 175.72 385.71 171.66 384.61 168.94 385.2 165.33 387.85 163.26 386.67 165.03 384.24 167.39 380.04 170.19 371.86"/>
    <path class="cls-1" d="M612.31,680.43q-6.85-12.95-13.8-25.86c-.32-.68-.88-1.69-.17-2.32,1.76-1.49,3.9-2.46,5.69-3.92a22.38,22.38,0,0,0-3.73-2.09v0l-1.82-.59-.56-.42q-7.15-11.1-14.2-22.28c-.92-1.39-1.6-3.07-3.11-3.93-9-4.72-18.23-8.88-27.11-13.78-4.64,3.22-9.21,6.54-13.83,9.78a28.36,28.36,0,0,1-.68,6.22c-2.17-.43-4.69-.85-6.1-2.74-.91-1-1.53-2.29-2.66-3.07-2.18-1-5-1.44-7,0A17,17,0,0,0,522,618a15.7,15.7,0,0,0-3.27-.32c-1.8,1-3.22,2.49-5,3.4-1.46,0-2.4-2-4-1.58-3.06.59-6.1,1.29-9.15,2-1.4.18-1.88,1.65-2.55,2.68a22.19,22.19,0,0,0-2.17,4.19c-.2,2.82.43,5.63.46,8.45,0,.6-.11,1.36-.82,1.51-2,.76-4.15.94-6.08,1.85a85,85,0,0,0-4.31,7.4,45.28,45.28,0,0,0,3.71,6.5c1.72,0,3.44,0,5.14.22.25,1.25.44,2.51.69,3.76,2.2.7,5,.46,6.55,2.41,2.79,3.14,5.48,6.39,8.41,9.42h0l.83,1.4c-1.43,1.6-3.46,2.74-4.17,4.86-.58,1.67-1.26,3.32-1.79,5-.42,1.29.39,2.54.81,3.72,1.44.26,3.43-.39,4.27,1.18q3,4.2,5.81,8.48c1.11,1.82,3.23,2.57,5,3.6h0l.06.05,1,1.11h0c3.07,5.45,6.53,10.69,9.89,16,4.55-.46,9.06-1.32,13.62-1.69,2,.42,3.84,1.6,5.79,2.32,2.28-2.78,3.83-6,5.85-9,.92-1.59,3.25-1,4.23-2.45,1.31-1.81,2.78-3.62,3.37-5.82.82-3.07,1.63-6.15,2.4-9.24l.34-.11,1-.34.89-.34.39-.34c1.51-1,3-2.11,4.41-3.22a8.22,8.22,0,0,1,3.49-2c4.7-1.06,9.5-1.7,14.07-3.27,1.87-.55,3.68-1.33,5.6-1.72,1-.23,1.91.55,2.62,1.19,2.34,2.27,4.57,4.66,6.93,6.9a4.58,4.58,0,0,0,2.92,1c2.27.22,4.54.53,6.82.66A66.49,66.49,0,0,0,612.31,680.43Z" transform="translate(-206.94 -266.33)"/>
    <path class="cls-1" d="M552.49,604c-1.56-1.65-3.07-3.35-4.76-4.86-1.27-1.27-2.76-2.42-3.49-4.11-1-2.4-1.42-5.07-2.82-7.32h0l-.36-1.92h0c-1.68-5-3.34-10.07-5.06-15.09l-.5-1.55h0q-3.07-19.61-6-39.22a4.26,4.26,0,0,0-1.23-2.77c-6.16-6.19-12.24-12.47-18.56-18.49-1.94,1.44-3.65,3.15-5.52,4.68-2.57,2.39-5.37,4.55-7.86,7a5.18,5.18,0,0,0,.7,2.31c1.6,3.35,3.1,6.74,4.68,10.1.49,1.24,1.47,2.49,1.29,3.86a31.54,31.54,0,0,1-4.41,4.54c-3.58,3.57-7.38,6.9-10.93,10.49-2.57,2.53-5.36,4.81-7.8,7.47,2.74,3.85,6.11,7.22,8.88,11.05-1.27,2.51-3.12,4.69-4.3,7.24a20,20,0,0,0,.91,3.46c-.71,1.34-1.91,2.52-2.26,4a48.5,48.5,0,0,0,3.06,5.62c2.31-1.29,4.08-3.46,6.65-4.25,1.23,1.58,2.39,3.22,3.62,4.81l1.4,2.72v.2c-.58,2.14-2,4-2.79,6,.76,1.48,2.23,2.47,3.32,3.71-.48,1-1,2.05-1.55,3.06,1.83,2.48,4.17,4.51,6.09,6.9,1.27,1.41,1,3.44,1.29,5.19,2.2-.11,4.3-.86,6.48-1.15,1.14.19,2,1.08,3,1.62,1.45-1,2.84-2.12,4.32-3.09.9-.62,2-.19,3-.19.62-2.33,3.11-3,5.17-3.43a20.05,20.05,0,0,1,5.09,1.58c1.43,1.11,2.18,2.86,3.55,4a12.15,12.15,0,0,0,2.42,1,15.15,15.15,0,0,0,.6-5.35,16.68,16.68,0,0,0,3.69-2.06C545.16,609.23,548.91,606.75,552.49,604Z" transform="translate(-206.94 -266.33)"/>
    <path class="cls-1" d="M509.46,711.26l.25-1.06a12.09,12.09,0,0,0,.8-1.51c-.39-.64-.79-1.28-1.17-1.93,2-3.27,4.21-6.38,6.15-9.67-2.1-3-4.15-6-6.23-9.06-.57-.76-1.16-1.78-2.25-1.75a2.06,2.06,0,0,0-.42,0h0l-.3,0-.59-.05-.58-.13-.6-.19-.32-.21-.28-.29-.18-.43-.15-.44h0a18,18,0,0,1-.77-2.68c.4-2.22,1.5-4.25,2.16-6.4.51-1.87,2.16-3,3.4-4.41-2.07-2.79-4.54-5.24-6.76-7.9a13.36,13.36,0,0,0-2.39-2.42c-1.81-.79-3.85-.78-5.68-1.5-.79-1-.35-2.52-1-3.61a36.71,36.71,0,0,0-4.57-.22c-1.62-2.5-3.47-5-4.38-7.86,1-2.45,2.61-4.64,3.71-7.06h0l.39-.66.57-.85.45-.38c2.06-.51,4.12-1,6.15-1.62-.11-2.9-.55-5.77-.53-8.67.28-1.58,1.37-2.87,2.1-4.27.77-1.19,1.27-2.62,2.4-3.53a18.37,18.37,0,0,1,3.73-.94c-.11-1.49.13-3.13-.62-4.47-2-2.77-4.86-4.89-6.74-7.78-.25-1.11.86-2.1,1.24-3.12-1-1.2-2.43-2.13-3.09-3.57.44-2.41,2.06-4.41,3-6.63-1.37-2-2.66-4-4.17-5.86-2.27,1.39-4.2,3.29-6.59,4.48a68.29,68.29,0,0,1-3.46-5.92,5.46,5.46,0,0,1-.8-2.08c.53-1.36,1.61-2.41,2.2-3.74,0-1.49-1.28-3-.39-4.44,1.19-2.06,2.6-4,3.77-6.06-2.79-3.33-5.45-6.79-8.43-10q-9.11,8.63-18.18,17.26c-1,.63-2.4.45-3.47,1.06-3.06,1.52-6.12,3-9.17,4.59-1.51.66-1.67,2.47-2.26,3.81-1.16,2.94-1.85,6.17-4,8.63-1.86,2.75-4.34,5.24-5.16,8.56-1,3.46-2.14,6.9-3.17,10.36-.34.8.24,1.54.55,2.24,3.33,6,6.6,12.12,9.9,18.18,1.23,2.16,2.27,4.43,3.66,6.48,1.67-.77,3.19-1.85,4.93-2.48a1.23,1.23,0,0,1,1.19,1.24c-.36,2.26-1.65,4.29-1.88,6.59.56,1,1.37,2.84,2.72,2.71,2.29-2.66,4-5.77,6.07-8.6a11.38,11.38,0,0,1,1.51.35c1,1.23,1.61,2.79,2.64,4,1.37-1,2.62-2.45,4.31-2.93l1.18,1.31h0c.71,1.7,1.67,3.27,2.47,4.93.28.57.53,1.46-.15,1.87-1.58,1.13-3.35,2-5,3,.44,2.3,1.83,4.25,2.52,6.47.39.95-.52,1.71-1.27,2.1-2.33,1.22-4.71,2.33-7,3.6a101.32,101.32,0,0,0-.26,10.31c.53,2.22,2.08,4,3.18,6l0,.31-.15,1.19-.24,1-.11.37v0c-2.15,3.52-4,7.21-5.85,10.9.59,3.06,2.36,5.8,2.9,8.87l-.24.76a64.76,64.76,0,0,1-7.25,3.54,36.82,36.82,0,0,0,2.5,7.42h0l1,1.35H457c3,2.57,6.43,4.51,9.47,7a1.2,1.2,0,0,1,.16,1.92c-.9.94-1.95,1.7-2.91,2.56,1.51,1.3,4.11,1.78,4.47,4,.56,2.68,1.05,5.38,1.73,8,1.5.42,3,.73,4.51,1.21,2.22,1,4.44-.53,6.64-.87A30.87,30.87,0,0,1,483.4,746a69.78,69.78,0,0,0,8.12-4.28c.89-1.35.38-3.25,1.08-4.71,1.92-1.64,4.47-2.28,6.47-3.8,2.12-1.9,3.81-4.24,5.84-6.22a60.63,60.63,0,0,1,7-3.47c-.36-3.77-1.54-7.41-2.5-11.06Z" transform="translate(-206.94 -266.33)"/>
    <path class="cls-1" d="M533.47,873.69c.65-.76,1.31-1.5,2-2.24-3-5.77-5.5-11.8-8.25-17.69l-.35-1-.21-1-.07-.83c.88-8,2-16,2.72-24.06-.09-1.5.48-3.37-.81-4.49-1.52-1.62-3-3.24-4.62-4.8A47,47,0,0,0,519,820c1,1.43,2.26,2.71,3.21,4.2-.07.23-.22.68-.3.91-5.53.65-11.17.32-16.71,1-2.61.74-5,2.09-7.58,2.9a34.81,34.81,0,0,0-3.19-2.89,24.94,24.94,0,0,0-6.46-.37c0,2.87.59,5.74.34,8.62a8,8,0,0,1-2.12,1.61c-2.62,1.51-5.23,3-7.8,4.64.22,4.69.22,9.39.53,14.07,2-1.34,3.15-3.63,5.25-4.87l1.2.86c-.43,2.2-2.29,3.68-3.35,5.57a54,54,0,0,1-5.44,7.23l-.28.2-2.14,2.23-.92,1-.46.5v0q-6.22,6.76-12.42,13.56c-.41.49-1,1-.89,1.69,0,2.64.95,5.23.73,7.88-.26,1.07-1.53,1.17-2.43,1.34-5.77.74-11.53,1.56-17.3,2.34a7.84,7.84,0,0,1-4.11-.21c-2.21-1-4.3-2.33-6.52-3.34-.72-.44-1.54-.08-2.29,0-1.71.41-3.41-.25-5.09-.53l-1.22-.36-1-.18h0c-2.08-.6-4.24,0-6.31.3-5.83,1-11.69,1.87-17.51,2.91-1.57.09-1.87,1.95-2.13,3.18.3,2,1.95,3.64,2.27,5.7-.64,1.77-2.3,2.87-3.53,4.22-1.23,1.09-2.19,2.61-3.75,3.24-3.26-.2-6.29-1.63-9.52-2a42.29,42.29,0,0,0-1.32,4.72l-.06,0-.45,1.68h0c-.2,3.35-.21,6.71-.23,10.07a3,3,0,0,1-1,2.53c-3.44,2.68-7.14,5-10.56,7.74-1,1.68.13,4.28-1.39,5.78a66.49,66.49,0,0,1-6.48,3c-2.36,1.14-5,1.42-7.53,1.93-.34,2.46.18,5-.34,7.43-2.22,2.83-5.17,5-7.71,7.52-4.25,4.24-8.72,8.25-13,12.45a4.49,4.49,0,0,1-1.51.91,14,14,0,0,1-3.57-2.12c-2.62.93-5.13,2.16-7.7,3.22-.92.44-2.07.81-2.48,1.85a42.38,42.38,0,0,0-1.52,4.71c-.47,1.32.81,2.32,1.68,3.09a16,16,0,0,0,5.34-1.36c1.76-1.45,2.48-3.82,4.32-5.19,1.64,0,3.06,1,4.56,1.54,2,.94,4.46,1.37,5.61,3.42,1.71,2.92,3.25,5.94,5.06,8.8,2.22-1.48,4.2-3.29,6.27-5-1.33-1.67-3.19-2.76-4.65-4.29l.69-1.07c2.26-1.23,4.9-1.55,7.22-2.64,1.84-1.4,2-4.21,4-5.44,2.3-.85,4.95-.49,7.14-1.65,1.77-2.84,2.45-6.29,4.41-9,3.12-.73,6.38.45,9.55.52,2.61.4,4-2.52,6.3-3.08,1.77-.18,3.55,0,5.32-.09,1.16,0,2.5-.17,3.44.69,1.61,1.42,3,3,4.66,4.47a15.33,15.33,0,0,0,1.58-1.54l.35-.22.88-1.62h.58a10.88,10.88,0,0,1,1.41.7,13,13,0,0,1,.91,2.29c2.82.56,5.68.91,8.5,1.47s2.95,4.82,5.9,5.28c2.94.66,5.87,1.34,8.85,1.79,0-1.71-.3-3.39-.45-5.08a1.54,1.54,0,0,1,.7-1.57c1.74-.92,3.85-1,5.52-2a21.26,21.26,0,0,0,1.57-4c-1-1.18-2.37-2.12-2.88-3.58.41-1.5,2.15-2.11,3.2-3.13-.22-1.08-.85-2.23-.33-3.32.82-2.09,1.89-4.06,2.73-6.13a5.49,5.49,0,0,1,1.62-2.54c1.6-.63,3.38-.28,5-.76,1.79-1.33,2.68-3.84,5-4.44,2.13-.63,4.32-1,6.47-1.54,3.5-.68,6.68-2.34,10-3.66h0l.15-.05.9-.14,1,0,.22.05h0c2.5.79,5.33.34,7.68,1.64,5.47,3.48,10.73,7.3,16.3,10.62a31.35,31.35,0,0,1,1.38-4,3.64,3.64,0,0,1,2.5-.34c7.49.85,14.93,2.09,22.43,2.84.6-2.56.05-5.43,1.31-7.78,3.95-1.36,8.39-.73,12.27-2.4a7.35,7.35,0,0,0-1.7-2c-.74.07-1.45.26-2.18.4-.73-2.47-1.16-5-1.75-7.51l-2.43-.34a34.1,34.1,0,0,1,1-5l-2.38-.32c-1.25-1.95-2.42-3.95-3.74-5.85h0l-.17-.44-.09-.59.09-.44.26-.28.07-.05c1.08-.31,2.29-.27,3.38-.49,1.37-.12,2.86-.73,4.17,0,2.84,1.44,5.52,3.2,8.4,4.58,1.59-1,.82-2.87.63-4.36-.86-5.84-1.73-11.67-2.66-17.5,2.57-1.35,5.43-2,8-3.32a9.17,9.17,0,0,0,.32-3.3C536.34,880.6,534.31,877.27,533.47,873.69Z" transform="translate(-206.94 -266.33)"/>
    <path class="cls-1" d="M627.18,720q-4.12-9-8.18-18.13a5.47,5.47,0,0,0-1.8-2.54,30.69,30.69,0,0,1-4-2.35c-2.19-1.72-4.84-2.8-6.8-4.81-2.89-2.91-5.8-5.81-8.69-8.72-.56-.49-1.11-1.24-2-1-2.91.22-5.79.77-8.68,1.17-1.42.26-2.78-.56-4.19-.27-2.07.4-4.16.75-6.18,1.32-3.11,1.52-5.29,4.71-8.77,5.49-.78,2.63-1.43,5.29-2.13,7.94-.05.18-.1.37-.14.56h0v0l-.16.7-.43,1.42-.37.7-.46.62-.12.16h0c-.86,1.11-1.61,2.3-2.46,3.41-1,1.48-3.32.86-4.21,2.44-1.38,2.21-2.76,4.42-4,6.68a1.86,1.86,0,0,0-.18.34l-.24.43-.69,1.13-.47.66-.21.28a39.55,39.55,0,0,1-5.45-2.2c-1.52-.84-3.25-.21-4.86-.06-3.4.42-6.79,1-10.21,1.25-1-.07-1.47-1.32-2-2-2.83-4.73-5.84-9.34-8.71-14a7.33,7.33,0,0,0-3.4-2.71c-1.94,2.6-3.59,5.39-5.37,8.1,1.41,2.35-1.12,4.65-.37,7.08.75,3.08,1.45,6.18,2.28,9.25.31,1.46,1.88,2,3,2.69,1.86,1.16,4,2,5.63,3.43.86,4,1.11,8.21,1.59,12.32.32,1.65-1.64,2.08-2.65,2.89q-.29,3.64-.5,7.31c4.24,2,8.76,3.25,13.06,5.08a3.83,3.83,0,0,1-.58,1.74c-1.74,2.5-3.95,4.66-5.56,7.25a26,26,0,0,0,4.38,2.51l.07.09.77.61.6.41h0l2.38,1.7c-.15,1.51-.65,3-.7,4.51,2.83,4.73,8.76,5.75,12.88,8.94,1.82,2.71,3,5.81,4.73,8.57h0l.43.63.57.66c.09.73.17,1.48.27,2.22l-1.52,1.25c.77,1.94.31,4-.13,6-.29,1.18-1.52,1.7-2.36,2.45a23.09,23.09,0,0,1,.68,4.21c-1.4.08-3.74.19-3.3,2.23,1.1,2,2.9,3.46,3.92,5.49a35.88,35.88,0,0,1-3.55,1.81c.91,2.51,1.69,5.07,2.6,7.58a48.48,48.48,0,0,0,5.82-2.06c0-1.12,0-2.24,0-3.36a54.94,54.94,0,0,1,9.45-2.92c1.18,1.06,1.73,2.62,2.63,3.91,1-1,1.86-2.17,2.73-3.3-.81-1.29-1.7-2.53-2.43-3.87,3.22-2.73,7-4.75,10.22-7.45.73-2.2,1.48-4.39,2.13-6.61,1.68.12,3.34.48,5,.63.58-1.52,1-3.34,2.76-3.87-.28-1.64-.92-3.27-.79-4.94,2-1.86,4.49-3.06,6.53-4.85a27.47,27.47,0,0,0,.79-5.1c-1.05-.83-2.13-1.61-3.23-2.36-.09-1.2-.15-2.39-.26-3.58-1.1-.12-2.2-.21-3.29-.34-.28-1.39-.49-2.8-.75-4.2h0l0-.15.06-.86L588,771l.18-.11c3.5-.91,6.6-3.49,10.37-3.18,2.68,0,5.36,0,8,0,2.5,0,5.07-.22,7.49.57.59-1.89.59-4.15,1.9-5.71,2.24-.72,4.7-.58,6.85-1.63a38.46,38.46,0,0,0,3.4-4.32c-4-2.5-8.22-4.5-12.18-7-1.07-.55-.64-2,.12-2.66,4-4.59,8.17-9.1,12.23-13.67a3.75,3.75,0,0,0,1.1-2.42c.17-2.56.48-5.1.62-7.65A6.5,6.5,0,0,0,627.18,720Z" transform="translate(-206.94 -266.33)"/>
    <path class="cls-1" d="M548.92,797.86a41.85,41.85,0,0,1,3.35-2.72c-1.53-3.11-3.23-6.14-4.78-9.23-.71-1.69-2.6-2.2-4-3.08-3.69-2.08-8.18-3.73-10.07-7.84a25.29,25.29,0,0,1,.73-3.94c-.72-.51-1.46-1-2.2-1.5h0l-.34-.29-1.06-.59-.22-.13h0c-1.47-1-3.09-1.86-4.46-3-.29-.93.49-1.67,1-2.36,1.67-2,3.33-4,4.9-6.15-4-2.07-8.5-3.1-12.58-5,0-2.72.31-5.43.41-8.14,0-1.54,1.68-2,2.7-2.78-.23-3.5-.81-7-1.13-10.44,0-1.76-1.89-2.27-3.09-3.09-1.73-.88-3.3-2.17-5.18-2.71-1.59.52-3,1.37-4.57,2-4.09,1.44-5.65,6-9.19,8.23-1.75.94-3.55,1.78-5.27,2.77a27.31,27.31,0,0,0-.38,3.38l-.17.56-.41.8-.71.66-.5.26h0c-3,1.41-5.75,3.17-8.78,4.45a47.24,47.24,0,0,1-2.35-4.59,24.26,24.26,0,0,0-4.53,1.15c0,1.65.58,3.45-.07,5a11.77,11.77,0,0,1-4.93,2.4c-1.63-1.17-2.18-3.25-3.28-4.86-2.7.34-5.38.84-8.06,1.28-1,.21-2.37.31-2.83,1.45a57.66,57.66,0,0,0-3.17,6.46c2.76,2.25,5.85,4,8.57,6.35-.55,2.63-1.92,5-2.93,7.42-1.16,2.8-2.6,5.5-3.56,8.38,1.56.73,3.19,1.3,4.75,2-.16.61,0,1.43-.55,1.87-2.94,2.4-6.3,4.28-9,6.93,3.78,2,7.57,4,11.44,5.83l.14.23.23.72-.08.74-.32.83v.08l-.08.24q-3,8.61-6,17.2a11.74,11.74,0,0,0-.84,3.19,29.79,29.79,0,0,0,2.18,4.56c1.58,2.93,2.92,6,4.59,8.88A19.85,19.85,0,0,1,466,830.5a11.33,11.33,0,0,1,3,1.78c3,2.24,6.17,4.33,9.18,6.6,2.94-1.63,5.81-3.37,8.68-5.12.19-3.16-.52-6.31-.25-9.46,1.89-.15,3.79-.11,5.69-.19l.41.09,1,.15,1.05.31.6.31c.86.71,1.66,1.5,2.46,2.29,1.95-.59,3.8-1.48,5.69-2.23s4.17-.52,6.25-.72c3.42-.29,6.86-.13,10.27-.53a36.37,36.37,0,0,1-3-4.11c1.31-1.6,3.52-2,5.23-3.12h0l1.57-.86h0a14.83,14.83,0,0,1,3.12,2.86c1.21,1.49,2.91,2.6,3.77,4.35.22,1.81,0,3.64.07,5.46a20.62,20.62,0,0,0,4.4-2.82c1.64-3.37,2.15-7.22,4-10.51,1.48.33,2.93.75,4.4,1.11,1.16-2.12,1.52-4.58,2.83-6.62.44-1,1.68-.86,2.56-1.18-.3-1.14-.56-2.29-.8-3.44a14.89,14.89,0,0,0,2.6-2.14,13.72,13.72,0,0,0,.49-3.61C550.37,798.86,548.56,799.26,548.92,797.86Z" transform="translate(-206.94 -266.33)"/>
    <path class="cls-1" d="M689.38,889.77c-.65-3.07-1.37-6.12-2-9.2-.55-2.41,1.19-4.49,1.71-6.76-3.89.47-7.65,1.61-11.51,2.22-3,.45-5.94,1.65-9,1.43-2.7-1.6-4.4-4.62-7.48-5.59s-6.24-2.63-9.56-3.32c-2.69-.58-5.34-1.36-8-1.91-.66,0-1.68-.43-2,.39-.84,1.32-1.07,3.12-2.44,4-2-.15-3.78-1-5.72-1.29-1,.15-1.73.8-2.68,1a14.57,14.57,0,0,1-3-2.45c-1.36,3.62-2.61,7.28-4,10.89-.62,1.5-2.29,2.17-3.24,3.4l-.53.27-.49.18-.55,0-.83-.26-.71-.37-.21,0a29.27,29.27,0,0,0-2.85-1.32c-.88.87-1.73,1.76-2.61,2.61-.54.45-1.09,1.28-1.88.81a21.27,21.27,0,0,1-2.5-3.51c-1.08-.14-2.16-.25-3.23-.37-.38-.84-.74-1.68-1.1-2.52-1.34,1.19-2.13,3.28-4.11,3.48-.05-1.59.17-3.16.24-4.74.07-.64-.63-.92-1-1.25-2.6-1.67-5.18-3.36-7.77-5h0l-.17-.16-.55-.31-.47-.38-.12-.52.11-1.15.21-.75c.05-.14.11-.27.16-.4h0l.11-.23.38-1v-.06a16.28,16.28,0,0,0,.65-2.56c-.46-1.94-1.56-3.65-2.07-5.58a87.45,87.45,0,0,0-2.84-9.65c-1.62-.51-3.45-.54-4.9-1.41-1.57-2.06-3-4.2-4.4-6.39-.9-1.27.68-2.29,1.7-2.72,1.63-.46,2,2.19,3.54,2.14a22.06,22.06,0,0,0,3.72-.31c.09-.73.18-1.46.26-2.18-2.63-1.09-5.33-2-7.84-3.34.49-2.18,1.4-4.23,2-6.38.38-2.17-.87-4.33-.46-6.5a60.55,60.55,0,0,1,4-4.6c-1-2.43-2.13-4.82-3.37-7.14-3.21,2.19-6.45,4.36-9.56,6.69.66,1.18,1.8,2.22,2,3.6a17.82,17.82,0,0,1-2.65,3.77c-.62.64-1.26,1.82-2.31,1.34-.93-1.34-1.6-2.83-2.44-4.22-2.5.71-5,1.42-7.46,2.33,0,.63.1,1.28.16,1.92h0l-.08.86-.34.88-.07,0c-2.65.54-5.07,2.06-7.73,2.62a65.37,65.37,0,0,1-3.44-10c.58-1.11,2-1.28,3-1.87a31.59,31.59,0,0,0-2.7-3.3c-.63,1.37-1.23,2.75-1.86,4.12a23.39,23.39,0,0,1-4.52-1c-1.16,2.84-2,5.8-3,8.67-.52,1.92-2.66,2.5-4.12,3.53-.89.66-2.33,1.07-2.4,2.37-.77,5.93-1.36,11.88-2.18,17.8-.09,1.2-.4,2.5.17,3.63,1.69,3.67,3.29,7.37,5,11h0l0,.11,1,2.12h0c.84,2,2,3.8,2.74,5.83-.68.78-1.38,1.55-2.06,2.33,1.15,1.92,1.1,4.27,2.17,6.22l.1.64.12,1.12,0,.81v0a38.2,38.2,0,0,1-.24,5.67c-2.48,1.31-5.21,2.05-7.76,3.2.77,5.48,1.69,10.93,2.45,16.41a18.61,18.61,0,0,1,.43,4.06,9,9,0,0,1-2.58,2.21c-3.15-1.47-6-3.49-9.15-5-1.74-.32-3.5.35-5.23.5a50.85,50.85,0,0,0,3,5c1.05,0,2.1,0,3.16,0a44.61,44.61,0,0,1-.78,4.6,9.12,9.12,0,0,1,1.67,1.17c.7,1.93,1,4,1.49,6,2.31.55,3.35,3,5.5,3.88a26.61,26.61,0,0,0,4.31,1.16c.72-1.13,1.13-2.57,2.25-3.36,2.63-1.09,5.55-1.24,8.27-2,1.1-.43,1.69-1.54,2.39-2.42-.66-1.82-1.93-3.39-2.38-5.28a11.39,11.39,0,0,1,1.05-1.25c4,2.76,7.65,6.16,11.76,8.79a93.36,93.36,0,0,0,9.46-.23h0l.38,0,.48-.05.73-.34.12,0c3.09,1.23,5.62,3.47,8.66,4.78.71-1.5,1.34-3,2.13-4.49,8.48-1.69,17-3.08,25.5-4.71h.19l.54-.13.86-.3h.09c4.63,1.9,9.5,3.19,14.22,4.87,3.38.94,6.63,2.5,10.1,3,2.06-1.93,3.5-4.41,5.41-6.48a7.09,7.09,0,0,1,3-1.48c3.56-1,7.11-2.11,10.66-3.16,4.07-1.13,6.16-5.77,10.41-6.44h.4l.64-.12h.7l.87.13.26.08a11.83,11.83,0,0,0,4.54,1.1c0-1.68-.55-3.47.27-5s1.58-3.2,2.37-4.8c.46-.86.93-1.88,1.92-2.22,2.45-.9,5.21-.91,7.46-2.32,3.14-1.91,6.25-3.87,9.35-5.83C689.82,891.74,689.49,890.57,689.38,889.77Z" transform="translate(-206.94 -266.33)"/>
    <path class="cls-1" d="M294.56,952.65c-.65-.25-1.19.21-1.65.59-3,2.76-7.17,3.66-11,4.67a4.56,4.56,0,0,0-1.07,1.12c1.25.07,2.62-.21,3.72.55,1.6.92,3.17,1.91,4.76,2.87a22.38,22.38,0,0,1,4.18,3.9c2-.46,4.12-.7,5.9-1.76.47-1.28.38-2.71,1-4,1.27-1.28,3.44-1.22,4.38-2.91a11.5,11.5,0,0,0-3.87-2.68C298.75,954.29,296.73,953.25,294.56,952.65Z" transform="translate(-206.94 -266.33)"/>
    <path class="cls-1" d="M701.47,779.62c-.1-.58-.15-1.24-.3-1.84l0-.13-.36-1.85-.24-1.42-.05-.08h0c-.63-4.14-1.34-8.27-2-12.41-.18-1.56-1.6-2.45-2.67-3.41-4.85-4.07-9.63-8.22-14.47-12.3-1.71-1.65-4.25-1.47-6.41-2-4.8-.7-9.53-2.21-14.43-2-6.39,0-12.78,0-19.16,0-1-.18-1.42.81-1.74,1.54-1.94,4.63-3.85,9.27-5.83,13.87-.46.75-.71,2.06-1.82,2a47.81,47.81,0,0,1-4.4-2.09c-1.49,1.71-2.83,3.54-4.31,5.25l-.57.29-.48.16-.58,0h-.51c-1.47.16-2.92.37-4.37.65-.71,2.11-1.11,4.32-1.85,6.43-1.68-.13-3.11-1.25-4.8-1.26-3.58-.06-7.16,0-10.73,0s-6.86,1.94-10.18,3.17c.07,1.11.18,2.21.35,3.31,1.13.14,2.27.24,3.4.38.09,1.32.15,2.64.26,4,1.1.81,2.22,1.59,3.33,2.39-.18,2.28-.12,4.69-.94,6.83-2,1.74-4.28,3-6.34,4.59a8.17,8.17,0,0,0,.81,3.27h0l0,.15.18.93-.16.61-.31.51-.38.36-.38.29-.87.25c-.53,1.17-1,2.34-1.64,3.48-1.6-.15-3.18-.41-4.76-.69-.28,1.41-1,2.79-.92,4.24,1,3.15,3,5.91,4,9.08-.54,1.46-1.89,2.4-2.87,3.55-.53.66-1.47,1.24-1.29,2.21.1,1.66.65,3.27.63,5-.44,2-1.33,3.92-1.87,5.92,2.45,1.09,5,2,7.41,3.13.08.47.14,1,.23,1.44l-.22,1.94-.19.86-.41.32-.28.07c-1.9.14-3.82.58-5.71.26-.86-.65-1.6-1.43-2.48-2,.51,2.13,2,3.79,3.23,5.59,1.24,2,4.27,1,5.79,2.6,1.49,3.23,1.94,6.84,3.45,10.07,2.34-.35,4.78-.3,7.05-1,3.51-1.8,6.67-4.21,10.17-6,1.9-.39,3.88-.09,5.82-.25h0l1.15.05.71.6.08.15a19.91,19.91,0,0,0,.48,2.42,24.55,24.55,0,0,0,3.63,3c.6.48,1.37.07,2,0,2.6-.71,5.22-1.39,7.86-2a25.12,25.12,0,0,1,3,7.67c-1.17,1.82-2.81,3.29-4.1,5,.81.84,1.68,1.61,2.55,2.39a10,10,0,0,1,2.18-.87c1.94.28,3.79,1,5.74,1.31,1-1.7,1.53-3.64,2.64-5.26,1-.52,2.15-.32,3.22-.46,3.68-.35,7.37-.67,11-1.06,1.37,0,2.1-1.33,2.87-2.28,1.63-2.31,3.58-4.4,5-6.84a58.28,58.28,0,0,0,.16-7.12c.23-1.92-1.73-2.91-2.44-4.45a1.18,1.18,0,0,1,.78-1.34c3.81-.7,7.8,0,11.57-.92a55.7,55.7,0,0,0,6.7-6.24c-1.05-.54-3.07-.54-2.89-2.16.75-1.58,2.27-2.61,3.4-3.9h0L682,826l.73-.84c.53-.41,1-1,1.47-1.42,3.14-3.41,6.61-6.49,9.79-9.84a5.4,5.4,0,0,0,1.13-2.72c1.67-7.86,3.54-15.68,5.18-23.55C701,785,701.89,782.35,701.47,779.62Z" transform="translate(-206.94 -266.33)"/>
  </g>
</svg>
