<?xml version="1.0" encoding="utf-8"?>
<!-- (c) ammap.com | SVG map of map title -->
<svg xmlns="http://www.w3.org/2000/svg" xmlns:amcharts="http://amcharts.com/ammap" xmlns:xlink="http://www.w3.org/1999/xlink" version="1.1">
	<defs>
		<style type="text/css">
			.land
			{
				fill: #CCCCCC;
				fill-opacity: 1;
				stroke:white;
				stroke-opacity: 1;
				stroke-width:0.5;
			}
		</style>

		<amcharts:ammap projection="mercator" leftLongitude="-180" topLatitude="90" rightLongitude="180" bottomLatitude="-90"></amcharts:ammap>

		<!-- All areas are listed in the line below. You can use this list in your script. -->
		<!--{id:"IM"},{id:"GB-UKN"},{id:"GB-UKM"},{id:"GB-UKL"},{id:"GB-UKK"},{id:"GB-UKJ"},{id:"GB-UKI"},{id:"GB-UKH"},{id:"GB-UKG"},{id:"GB-UKF"},{id:"GB-UKE"},{id:"GB-UKD"},{id:"GB-UKC"}-->

	</defs>
	<g>
		<path id="IM" title="null" class="land" d="M759.3,637.9c-0.3,0.7,1.5,1.6,3.8,3c-0.6,0.8,-0.7,1.7,-1.7,2.8c-0.2,-0.4,-0.4,-0.9,-0.6,-1.3c1.4,6.8,-13.5,16.8,-12.7,17.9c0,0.1,-1.5,2,-1.4,1.7c-0.4,-4.6,-10,1.2,-6.6,-2.6c-0.5,-0.9,1.3,-9.9,3,-12.4c1.5,-2.2,4.7,-5.1,6.5,-8.1c3,-4.8,4.6,-7.3,10.7,-8.7C760.3,632.9,759.5,635.3,759.3,637.9z"/>
		<path id="GB-UKN" title="null" class="land" d="M651.7,556.2c2.7,2.2,5,0.6,7.3,1.2c1.2,0.3,4.3,2.8,5.8,3c4.2,0.6,2.6,-2.8,7.2,0.2c2.5,1.7,2.3,3.7,2.4,6.5c0.1,2.2,-1.1,4.6,-0.6,6.6c0.2,0.6,3.6,-0.3,4.5,1.3c1,1.7,-1.9,3.7,-1.4,5.3c0.2,0.5,4.5,4.4,5.4,5.5c2,2.4,3.4,4.1,4.5,7.4c-0.1,-0.5,-0.4,-0.7,-0.9,-0.6c1.1,1.9,1.7,2.6,4,3.1c-0.1,0.5,-0.3,0.5,-0.7,0.1c0.5,1.1,1.4,2.3,1.6,3.4c0.3,-3,-1.7,-5,-3.5,-7.2c3.5,-2.9,6.4,6.6,2.9,10.3c-2.8,3,-10,4,-8.8,9.5c-0.1,0,1.5,-0.5,1.4,-0.5c-0.5,0.5,-1.1,1,-1.6,1.5c0.3,-0.1,0.6,-0.3,0.8,-0.4c-0.2,0.3,-0.5,0.7,-0.7,1c0.3,-0.3,0.6,-0.6,0.9,-1c-0.2,0.5,-0.2,1,0.3,1c1.1,-4.8,10.4,-6.1,12.6,-5.8c4.6,0.8,5.2,2.4,6.9,7.5c1.6,5,2.8,8.8,2.7,13.2c0,3,-1.2,7.2,-2.7,9.7c-1.7,-2.4,-5.9,-7.4,-1.6,-9c-0.2,-0.2,-0.5,-0.3,-0.7,-0.5c0.7,-1.2,1.3,-0.6,-0.4,-1.6c0.5,-0.4,0.9,-0.7,1.4,-1.1c-1.2,-3.7,-2.6,-6.7,-7.8,-10c-0.7,1.4,-1.6,2.9,-2,3.9c2,0.9,3,1.7,4.8,2c-0.1,-0.7,-0.9,1.7,-0.8,1.5c0.5,-0.2,0.9,-0.4,1.4,-0.6c0.2,0,-1.3,0.9,-1.5,0.9c-0.4,-0.6,0.3,-1,0.1,-1.5c-0.4,0.7,-0.6,0.7,-0.6,-0.2c-0.7,1.3,-0.6,0.2,-0.5,2c0.8,0.6,1.3,0.4,0.7,2.3c1,0.8,0.6,0.1,0.3,1.1c1.1,0.1,0.6,-0.1,1.2,-0.9c-0.1,1,-0.4,1.3,-0.8,2.2c0.4,0.4,0.6,-0.2,0.6,1c-0.7,0.5,-0.3,3.3,-2.8,4.9c2.1,0.8,3.2,-0.5,5.8,-1c-0.2,-0.2,0.3,1.8,0.2,1.6c0.1,-0.3,0.1,-0.7,0.2,-1c0.8,2.2,1,4.5,2,5.8c-1.3,0.1,-2.3,3.2,-4.2,3.9c-0.1,0.2,-0.2,1.3,-0.5,1.7c-0.3,-0.9,-0.4,-0.8,-1.1,-1.5c0.1,2,-0.5,1.5,-1.1,3.3c-1.6,-4.5,-5.9,-0.3,-9,-2.7c0.6,-1,0.3,-0.8,1,-2.4c-0.9,1.3,-1.6,2.6,-2,3.8c0,-0.6,0.3,-1,0.9,-1.2c-1,2,-6.1,26.3,-13.8,18.6c0.6,-0.5,1.2,-0.3,1.6,-0.6c-1.7,-1.9,-9.6,-6.3,-12.3,-4.1c-2.7,-4.3,-4.1,8.5,-7.8,1.5c-0.5,0.8,-6.7,4,-7.7,3.6c-4.4,-1.9,-0.8,-6.3,-1,-8.6c-0.5,-7,-4,-3.6,-8,-6.6c-2.9,-2.3,-3.2,-9.1,-4.8,-11.9c-0.7,-1.3,-2.5,-4,-4.3,-4.7c-4.6,-1.7,-2.1,-0.7,-6.1,2.2c-1.3,1,-5.2,4.8,-5.5,6.9c-0.1,1,2.8,2.1,2.8,3.2c-0.2,6.3,-1.4,0.6,-3.6,4.3c-0.9,1.5,-1.5,6.9,-4.2,7.4c0.4,-1.3,0.3,-2.1,0.8,-3.4c-3.7,1.5,0.6,5.5,-5.6,4.1c-0.4,-2.5,-1.2,-0.7,-1.1,-2.9c-2.7,2.5,-7.4,2.3,-10.5,0.4c-1,-0.6,-2,-3.3,-3.4,-4c-1.8,-1,-5.4,0.2,-6.9,-0.6c-3.6,-2,-1.3,-4.1,-2.9,-7c-0.1,-0.3,-3.9,-3.8,-4.2,-4c-2.7,-2.1,-9.6,-8,-9.3,-11.4c-0.9,-0.5,-1,-0.1,-1.6,-1c3.3,-0.3,4.2,-1.9,6.3,-3.4c1.1,-0.8,1.4,-2.9,2.7,-3.5c1.2,-0.6,2.9,1.1,4.3,0.7c3.3,-1,10.6,-4.3,10.3,-8.2c-4.1,2.6,-10.7,-2.7,-11,-6.3c2.7,0,2.9,-2.9,4.3,-3c1.8,-0.1,3.3,2.9,5.2,2.6c4.1,-0.5,5,-4.9,10.4,-3.4c-2.7,-4.4,2.1,-6.2,3.6,-9.5c1,-2.2,0.4,-3.8,1.1,-5.9c0.6,-1.8,2.3,-2,2.7,-3.1c2.1,-6.4,0.8,-7.5,7.5,-9.7c-0.3,1.2,-0.6,1.1,-0.9,1.7c0.7,-0.4,1.1,-0.4,1.6,0c0.3,-0.8,-0.3,-0.7,0.3,-1.6c3.2,-0.2,4.8,2.5,7.8,1.3c3.2,-1.3,1.9,-4.2,4.5,-5.3c0.1,-1.8,1.4,-5.2,1.2,-7.8c6.5,6,10.6,0.2,15.7,-0.5c-0.1,-0.4,-0.2,-0.8,-0.3,-1.2C646.1,562.1,649.8,558.7,651.7,556.2z"/>
		<path id="GB-UKM" title="null" class="land" d="M732.2,511.9zM718.2,495.2c2.9,1.8,6.1,5.5,7.2,8.2c1.5,3.5,0.4,6.8,1.9,10.1c-2.9,0.2,-6.7,-7.3,-6.7,-6.8C721.7,502.6,713.7,499.2,718.2,495.2zM692.4,470.2c0.6,0.9,0.9,1.7,1,3C689.3,475.1,688.2,472.1,692.4,470.2zM696.5,467.5c0.5,1.4,2,1.7,-0.1,3.1C696,469.3,696.4,468.3,696.5,467.5zM692.3,467c0.1,1,0.2,2.1,0.3,3.1C690.3,469.5,691.1,469,692.3,467zM695.1,463.7c0,2.1,0.5,2.2,1.3,0.5c-0.7,2.4,-1.1,4.8,-1.3,7.3C693.3,468.7,693.6,466.5,695.1,463.7zM702.1,449.4c-0.1,2.7,-2.5,5.4,-4.6,4.2C698.4,451.6,700,450.2,702.1,449.4zM706.9,439.1c-0.3,0.5,0.3,1.1,-1.2,1.1C706.1,439,706.5,439.8,706.9,439.1zM705.8,436.8c-2.3,3.6,-5,7.2,-8.8,9.3c0.4,-1.4,2.6,-3.6,0.2,-2.6C701.3,442,702.2,437.5,705.8,436.8zM666,380.3c0.4,0.4,0.7,0.7,1.1,1.1c-0.2,-0.8,-2.5,2.3,-3,1.7C663.7,382.7,665.9,380.3,666,380.3zM679.9,369.6zM658.5,328.7c0.9,0.4,1.9,0.5,2.8,0.1c0.1,3.2,6.3,9.4,7.6,13.9c2,6.9,1,11.1,-2.7,15.8c-0.1,0.1,0.5,-0.4,1.1,-0.6c2.5,-0.7,12.7,7.5,13.9,8.8c0.4,0.5,0.6,0.8,1.7,3.1c0.6,1.1,1.1,2,1.4,2.6c2,-1.1,7.2,13.1,-1.7,16.7c-3.4,1.4,-5.8,3.3,-7.3,4.9c-3,-6.1,4.8,-13.1,9.3,-15.9c-4.8,3.7,-23.3,0.1,-22.7,-1.2c-4.1,4,-6.1,-2.3,-3,-4.8c-1.8,2.9,-5.4,0.1,-6.2,-2.2c-1.3,-3.8,1.5,-6.8,0.3,-6.2c-0.7,-2,-1.2,-4,-1.6,-6.1c-0.6,1.1,-1.2,2.2,-1.7,3.3c0.1,-1.4,-0.3,-1.7,-0.4,-3.3c-0.1,-0.3,-1.7,2.5,-1.8,2.6c-2.1,3,2.8,3.1,-2.5,2.5c-4.3,-0.5,-9.5,-6.4,-8.5,-10.3c1,0.2,2,0.5,3,0.7c-1.7,-1.7,-2.1,-4.5,0.2,-6c2.2,2.9,6.3,7.1,6.8,8.4c-0.6,-2.9,-2.3,-4.2,-2.8,-7.4c2.1,0.2,1.6,-0.7,3.6,0.8c0.1,-1.2,-2.2,-6.2,-4.4,-4.8c0.7,-2,1.1,-4,1,-6.1c2.5,0.8,8,7.9,8.8,10.4c0.6,-0.6,1.2,-1.2,1.8,-1.8c-0.4,1.6,-0.2,3.2,-0.4,4.4c0.5,-1.8,1.1,-3.6,1.9,-5.4c2.6,3.7,2.7,3.3,4.3,7c0.7,-4.5,-7.4,-8.6,-2.4,-12.7C651.9,341.5,659,329.9,658.5,328.7zM731.7,504c0.6,-2.7,1.1,-5.1,1.6,-7c3.5,-15.7,4.5,-19.4,6.9,-20c0.9,-0.2,2.6,-0.1,5.4,2.7c-1.1,-3.2,-3,-5.5,-4.7,-5.3c-0.4,0,-1.3,0.7,-3.2,2c-1.1,0.8,-1.7,1.2,-2,2c-0.2,0.6,-0.2,1.3,-0.2,1.7c-0.5,-1.2,-1.1,-2.5,-1.8,-3.9c-0.5,-1,-1.1,-2,-1.6,-2.9c0.3,1.8,2.5,19,-2,15.3c1.7,2.3,2.8,12.4,-2.1,12.4c-4,0,-5.9,-10.6,-6.5,-13.1c-0.4,2.5,4.3,7.4,2.5,9.5c-2.7,3.2,-6.4,-4.8,-6.1,-7c-0.9,5.5,-1.5,8.3,-0.6,14c-4.3,-4,-5.2,-1.2,-7,-7.3c-1.3,-4.3,0.5,-8.7,2.4,-12.5c4.4,-8.6,13,-13.1,18.8,-20.5c-3.3,2.2,-5.6,1.8,-8.1,3.8c-2.9,2.4,-4.7,7.3,-7.3,10.1c-2.2,2.5,-10.1,12.7,-10.6,7.3c-3.1,5,2,11.8,1,15.5c6.1,2.5,4.1,7.2,1.4,11.5c-3.8,6.1,-3.1,7.9,-4.2,15.2c-0.2,-0.9,-2.3,13.2,-7,13.1c13.6,2.8,-10.8,22.3,-10,6.9c0.1,-2.2,2.9,-4.6,3.6,-6.8c1.8,-5.4,0.4,-11.1,1.6,-16.5c2,-9.2,10.3,-14.1,13.3,-22.7c-2.9,3.8,-5.2,6.4,-9.2,9c0.7,-1.7,-0.2,-1.5,0.4,-3c-6.6,1.9,0.2,-11,1.8,-13c-2.2,1.2,-4,2.7,-5.6,4.5c-1.2,-5,3.5,-9.6,6.1,-13.2c-0.6,0.4,-1.2,0.8,-1.7,1.2c3.9,-5.3,-2,1.9,-3.1,3.1c0.4,-0.9,0.7,-1.8,1.1,-2.7c-2.6,4.1,-0.7,2.7,-3,7.5c-1.5,-0.6,-1.3,-1.6,0.6,-3c-0.6,0.4,-1.2,0.9,-1.6,1.5c0.4,-2.3,6,-16.1,9.5,-11.6c-0.2,-5,-1.5,-4.7,1.3,-10.5c-2.5,0.7,-3.9,3.6,-5.7,5.3c1.5,-4.8,2.1,-10.2,6.7,-11.5c-2.3,-0.8,-2.2,-0.2,-5.7,0.7c1.6,-3,1.7,-4,0.3,-3c0,-0.6,0,-1.3,0,-1.9c-1.2,1.1,-1,1.9,-1.6,3.4c-5.5,-6.1,7,-6.1,8.7,-9.5c-1.1,0.7,-2.2,1.3,-3.5,1.7c-1.4,-2.2,9.3,-12,5.7,-10.1c0.1,-1.4,-0.2,-2.7,-0.8,-4c-2.8,4.4,-0.4,1.5,-2.5,1.8c1.7,-4.6,15.9,-29.3,19.3,-32.1c-2.9,-2.9,-4.4,-2.1,-1.2,-0.7c-1.4,3.6,-15,22.8,-20.7,20.3c2.2,2.1,-0.9,6.1,-3.5,7.9c-5,3.4,-4.9,2.7,-10.2,0c-2.2,-1.1,-17.6,-12.3,-6.4,-11.7c-0.6,0,-0.1,0.2,1.8,-1.3c-1.1,2.2,0.6,3.8,2.6,4.4c-9.2,-5.8,-12.9,-4.8,-15.1,-6.2c-6.3,-3.8,-3.6,-6.8,4.4,-7.2c1.4,0,2.6,-0.6,3.7,-1.7c0.8,1.4,2,2.3,3.6,2.6c-3.4,0.8,5,1.2,2.7,0.4c-1.1,-0.8,-1.8,-1.8,-2.2,-3.1c3,2,3.8,-0.5,6.9,0.3c-1.8,-0.8,-3.6,-1.8,-5.2,-2.9c-0.6,-3,8.4,-3.3,9.1,-6.2c-1.4,2,-3.3,3.2,-5.7,1.8c0.9,-1,2,-1.8,3.3,-2.4c-1.9,-2.8,-6.6,3.2,-9.4,-0.3c0.3,-1.5,1.3,-2.1,3.2,-1.8c-2.6,-0.9,-1.1,-5.4,1.2,-4.9c-5.2,-4.2,7.2,-30.5,3.9,-29.8c0.8,-2.6,3.5,-3.7,3,-6.1c1.6,0.3,2.3,-1.6,1.9,0.7c4.3,-1.6,8.8,-2.8,10.7,-7.5c-3.7,0.4,-4,6.8,-8.8,5.2c1.2,-0.7,0.8,-1,-1.1,-1.1c0.4,0.4,2,-2.4,1.1,-4.1c-1.2,2.1,-4.1,4.8,-6.4,5.6c-3.9,1.4,-2.4,-2.8,-4.3,-0.6c-0.4,-1.5,-0.4,-3,0.1,-4.4c1.6,-2.4,1.1,-3.6,-1.5,-3.7c-0.5,-2.9,-1.4,-4.5,-0.6,-7.8c2.3,-9.4,5.7,0.7,7.7,-2.7c0.5,1.8,1.5,3.3,3,4.4c0,-1.1,-0.2,-2.2,-0.3,-3.4c0.5,0.9,1.4,1.5,1.9,2.3c-0.6,-2.1,5.9,-0.9,5.5,-2c-1.4,-3.3,-5.3,0,-7.1,-0.6c-0.6,-0.2,-4.6,-2.7,-1.5,-1.9c-2.7,-1.3,-6.7,-7.3,-6.4,-9.1c0.7,-4.1,4.2,-4.9,6.4,-2.4c1.6,-4.5,-9,-6.6,-7.7,-12.7c3,-13.8,9.5,4.5,11.7,5.2c-1.4,-1.2,-1.5,-2.1,-0.3,-2.8c-0.1,1.1,0.4,1.2,1.5,0.4c-0.8,-3,-6.8,-9.8,-2.8,-11.4c2.5,-1,7,5.1,9.2,5.7c1.7,-10.8,4.5,-3.8,2.5,-7.7c0.8,-0.3,1.8,-0.6,2.4,-0.7c0.9,3.6,4.5,1.7,6.7,3.1c3.8,2.5,3.1,0.8,0.2,-1.8c1.6,-0.9,1.2,-1.6,2.4,-2.8c-0.1,0.6,-0.3,0.9,-0.9,0.9c-1.5,-2.2,-6.1,-4.4,-8.3,-6c-0.4,-3.3,-4.2,-1.4,-2.9,-4.4c-5.5,-2.5,0.9,-8.2,2.9,-0.5c0.1,-1.8,0.6,-1.4,0.9,-2.2c0.8,1,1.3,0.9,1.9,1.5c0.7,-1.2,1.4,-2.8,1.6,-3.9c-0.7,-0.6,-0.6,-0.8,-1.7,-1.4c0.7,-0.1,1.3,-0.2,2,-0.2c-0.8,-0.4,-1,-0.6,-1.8,-1.5c2.5,-0.6,1.5,-0.6,2.9,-1.5c-2.8,1,-10,-8.3,-6.6,-10.8c1.4,1.3,2,1.8,3.4,3.8c0.6,-0.4,2.4,-1.9,2.8,-2.5c0,0,-1.5,-0.7,-1.6,-0.8c0.3,-0.3,0.6,-0.7,0.9,-1c1.3,1,1.9,0.8,3.1,2.1c0.4,-0.1,0.4,-0.8,1.5,0.7c0.1,-0.6,0.2,-1.2,0.4,-1.8c2.7,-1.7,3.6,1.1,7.1,0.9c-1.8,-0.9,-4.6,-2.3,-5.7,-3.6c0.4,-0.3,0.6,-0.2,0.8,0.4c-1.2,-1.3,-0.6,-1,-0.8,-2.6c-0.3,0.1,-0.6,0.1,-0.8,0.2c0.1,-0.6,0.6,-1.5,0.6,-1.6c-0.6,0.6,-1.2,1,-1.5,1.3c0.2,-1,-0.1,-1.1,0.6,-2.3c-1.1,-0.9,-0.4,-0.7,-1.6,-1.6c0.5,-0.2,0.9,-0.1,1.5,-0.3c-0.2,-1.5,0.1,-2.7,-0.3,-3.4c0.2,-0.7,1,-1.4,1.4,-2.4c0.9,1,2.1,1.6,2.4,2.3c0.9,0.4,1.7,0.3,2.8,1c-0.8,-0.9,-1,-1.5,-1.9,-2c0.4,-0.8,0.6,-0.4,0.4,-1.2c-1.7,1.7,-1.4,0.7,-2.1,-1c-0.2,-0.2,-0.7,0.3,-1.1,-0.6c1.8,-2.4,4.1,-2.3,6.8,-0.9c-1.8,-0.7,-2.3,-1.1,-4.4,-1.6c0.4,-0.2,0.8,-0.4,1.1,-0.7c-1.6,-1.5,-2.7,-1.9,-4.4,-1.3c0.5,-0.2,0.9,-0.4,1.4,-0.6c-0.3,-0.7,4.3,-12.4,5,-13c3.9,-3.1,14.3,2.7,10,8.6c0.6,-0.2,0.8,0,0.6,0.6c1.9,-1.9,1.5,-3.9,0.6,-5.8c0.5,0.1,1.1,0.2,1.6,0.3c-0.4,-1,-0.5,-1.6,-1.4,-2.4c0.4,-0.2,0.8,-0.3,1.2,-0.5c-0.1,0.5,0.1,0.8,0.7,0.7c-0.3,2.3,2.8,4.1,5.2,4.5c0.4,2.8,6,-9.7,10.3,0.4c1.1,-0.4,0.5,-0.2,1.6,-0.4c0.7,3.7,-0.3,7.6,-0.9,6c1.2,-0.5,9,-9.3,8.6,-3.2c0.8,-0.1,1.4,0,2.1,0.3c-0.2,-0.5,-0.4,-1.1,-0.6,-1.6c0.5,0.2,1.1,0.4,1.6,0.6c-0.3,-1.2,-0.5,-0.7,-0.2,-2.1c3.8,1.6,4.4,-3.8,7.3,0.1c0.5,-2.1,1.3,-3.4,2.6,-4.9c0,1,0.8,2.3,0.8,3.6c1.7,-0.9,2.7,-0.3,3.7,-0.9c1.7,2.2,5.4,-0.4,7.9,1c3.8,-6.3,6.9,-3.6,12.4,-6c-0.2,0.8,-0.4,0.8,-0.7,1.6c0,0,10.1,0.8,9.6,1.3c3.6,-3,-6.8,-4.7,0.3,-7.1c-1.8,0.6,4.1,1.8,3.8,1.7c4.4,0.7,8.9,-0.4,13.5,0.7c0,2.2,-0.7,4,-2.5,5c1.5,3.5,-3,5.3,-3.1,8.6c-0.1,4.1,5.8,1.6,3.9,6.2c-0.5,0,-1,-0.1,-1.5,-0.1c3.7,8.2,-14.9,17.7,-19.2,22.5c-4.4,4.9,-9,8,-14.1,12.1c-5.3,4.4,-8.8,11.1,-14.9,14.6c0.3,-0.5,0.6,-1,0.9,-1.5c-1.4,-0.4,-1.8,-0.3,-3.5,-0.9c1.1,4.6,4.6,2.3,3.5,9.4c-2,-1.1,-7,2.4,-5.5,3c-0.4,-0.7,2.4,0.1,6.3,0.5c2.4,0.3,2,-3.7,5.2,-0.3c-0.8,0.3,-2,0.9,-3,1.3c3.3,-0.9,6.5,-4.6,9.3,-5.1c-0.7,2.6,-10.6,12.4,-13.2,20c-1.5,4.2,-3.8,6.9,-3.1,8c-4.6,-1.3,5.2,1.3,0.7,-0.8c2.9,-1.8,14.2,0.8,14.5,-3.9c1,-0.4,1.7,-0.9,2.5,-1.5c-0.3,0.1,9.6,-4.2,5,-0.2c0.9,0.3,2,0.7,3,0.8c-0.4,-0.5,-0.4,-1.9,-1.8,-3c3,0.6,7.7,-0.2,6.4,-3.9c4.7,-0.5,7.3,-2.2,12,-1.1c4.5,1.1,7,4.3,12,3.8c3.8,-0.3,11.3,-6.4,14.4,-0.6c4.8,-2.5,12.8,0.6,18.1,0.5c4.4,-0.1,9.2,-0.9,13.6,-1.1c4.5,-0.2,7.6,-1.3,11.3,2.1c4.1,3.7,3.2,12.2,7.3,15c0.8,-0.5,-1.5,1.4,-1,0.4c3.7,7.9,-24,28.4,-13.2,34.4c-1.4,4.9,-5.2,8.9,-6.8,13.7c-1.7,5,-1.1,9.6,-4.2,14.1c-3.7,5.4,-10.2,9.8,-11.7,16.3c-2.1,9.2,-6.1,15,-15.5,17.5c-4.1,1.1,-8.8,0.3,-12.9,1.9c-5.1,2,-8.3,6.5,-12.4,9.9c7.2,0,11.6,-8.9,18.2,-9c5.7,-0.1,9.9,6.6,2.1,8.1c2.1,-0.3,1.8,0.2,3.6,-0.5c1.2,4.8,10.4,2.9,11.3,7.6c1.2,6,-8.5,7.5,-12.3,8.1c-6.2,1,-8.6,-0.4,-13.4,5.2c-5,5.8,-6.2,9.3,-15.3,10.4c0.3,0.7,0.6,0.5,0.5,1.7c-3.2,-1.4,-7,-2.4,-10.3,-4.8c-0.6,1.4,-4.9,1.9,-6.9,-0.6c-0.6,2.6,-0.2,4,2.1,2.7c0.1,1,0.3,1.5,0.5,2.3c7.8,-2.9,17.2,5.3,25.1,2.1c-0.6,0.3,-0.5,0.6,0.2,0.7c0.4,-0.2,0.4,-0.5,0,-0.8c7.5,9.1,12.2,-1.1,16.8,-2.3c-2.8,-3.7,5.2,-4.5,7.2,-4.3c3.5,0.4,9.4,4.8,12.5,6.8c5.7,3.5,19.7,6.4,21,13.4c1.8,9.7,-14.4,13.8,-12.5,23.1c0.7,3.6,6.6,6.6,5.8,10.7c-0.7,3.6,-7.6,8.5,-10.2,11.3c-3.4,-6.7,-26.1,30.9,-33.2,26.1c0.7,9.2,-16,10.5,-21.4,5.4c1,2.9,-5.3,2.9,-6.4,-1.1c-0.1,3.9,1.3,9,-0.9,11.8c-4.2,-1,-9.8,2.2,-12,-0.1c0.4,0.9,0.7,1.7,1.1,2.5c-0.7,-0.5,-1,-0.6,-1.8,-1.5c-0.2,0.3,-0.4,1.4,0.3,1.4c-0.3,-0.6,-1.1,0,-1.2,0.1c4.9,3.7,-13.7,11.8,-10,1.8c0,0.7,-0.3,0.8,-0.7,1.2c0.4,-1.2,0.5,-1.8,1,-2.5c-1.8,1.1,-2.3,3.9,-2.8,5.4c1,0.9,0.3,-0.1,0.7,1.1c-1,-0.8,-1,-0.8,-1.6,-1.8c-2.7,1.3,-6.1,-3.6,-4.4,-6.9c-0.3,0,-0.6,0,-0.9,0c-2.1,5.9,-8.7,-0.9,-8.8,-4.7c-2.2,5.8,1.5,6.2,2.7,11.3c-0.4,-0.2,-0.8,-0.3,-1.1,-0.5c1.1,4.4,1.4,9.9,-4.1,9.6c-3.8,-0.2,-6.5,-6.4,-8.9,-8.4c-3.6,-3.1,-8.2,-4.5,-11.7,-7.6c-4,3.7,-8.4,12.5,-0.9,16.5c-0.5,2.7,-1.2,2.2,0.7,4c-6.4,0.7,-5.6,-4.8,-5.3,-8.1c-5.3,-2.4,-11.5,-12.6,-11.8,-18.2c-1,-17.7,8.2,2,8.5,1.9c0.6,-0.2,-1.1,-13.5,-0.7,-14.9c1.6,-5.9,6.7,-11.3,9.4,-16.9c2.3,-4.9,15.1,-22.1,8.4,-25c1,-0.4,1.2,-0.8,1.3,-1c0.9,-3,-13.2,-6.5,-15.4,-15C729.1,511.6,729.1,508.5,731.7,504z"/>
		<path id="GB-UKL" title="null" class="land" d="M738.5,772.4c-0.1,0.7,0.7,1.2,-0.7,2C737.8,773.7,738.5,772.7,738.5,772.4zM745.8,725.6c0.8,0,1.2,0.7,1.5,-0.6c0.4,0.7,3.4,6.6,2,7.4c-0.1,0.1,-6,-4.9,-6.3,-5.7c0.2,-0.5,0.7,-1,1,-1.6C744.7,725.6,745.1,725.5,745.8,725.6zM813.8,722.4c1.3,3.6,8.3,8.1,12,10.2c-0.3,-0.4,0.8,-0.6,1,-0.6c-0.9,-0.5,-1.2,-0.5,-1.7,-1c2.1,0,3.9,0.8,5.8,2.1c3.8,2.7,2.2,4.5,2.8,5.9c-0.7,-1.7,-0.2,3.5,-0.2,3.1c0.2,0.8,2.2,1.9,2.7,2.9c0.6,1.4,0.7,4.9,1.3,5.9c1.8,2.9,10.4,5,6.4,9c-2.7,2.8,-9,-4,-12.9,-3.2c-4.5,1,-6.8,5.7,-7.2,8.7c-0.8,5.4,-0.3,4.3,4.2,7.3c5.3,3.6,3.9,2.4,0.6,7.5c-2,3.1,-5.4,8.3,-4.5,12.3c1.3,-0.2,3.6,-3,4.8,-2.9c3.8,0.3,1.8,2.5,0.3,4.2c-2,2.2,-10.5,1.7,-10,6.9c0.4,4.5,9.3,5.7,11,7.4c0.6,0.5,1.5,-0.5,2.2,0.6c0.9,1.3,-2,1.7,-1.9,2.2c0.6,2.1,-0.7,2.8,2,4.1c-3.5,0.2,-10.5,8.9,-6.3,8.7c-0.7,0.5,-1.3,1.9,-2.8,2.6c0.7,0.7,0.5,0.6,1.5,1.2c-2.3,2.7,3.2,14.7,7,16.4c1.7,0.8,2.3,-1.5,3.9,-1c1.9,0.6,3.7,2,5.6,3.4c2.8,2.2,3.8,4.8,6.7,5.3c-3.1,4,0.5,11.1,-2.1,13.4c4.3,4.8,-5.8,9.3,-10.3,10.3c-5,1.1,-4.8,-1,-9.5,2.7c-2,1.5,-3.2,1.8,-4.2,4.2c-0.9,-0.9,-0.3,-0.3,-1.2,-0.9c4.2,8.3,-15.6,7.1,-20,4.2c-1.7,-1.1,-2.5,-4.2,-4.1,-5.4c-1.4,-1.1,-2.3,0.9,-4,-0.9c-2.3,-2.4,-5.7,-9.6,-5.4,-11.6c-1.9,1.1,-12,1.4,-7.1,5c-3.2,-0.2,-9.9,-1.4,-9.2,2.1c-3.4,0.1,-4.4,-0.1,-8.1,-1.6c0.8,-2.4,0.5,-1.5,-0.5,-4c2.3,-1,2,-1.5,3.6,-3.1c0,0.1,0.5,1.2,0.5,1.3c4.3,1.2,8.5,-2.3,9.5,-5.8c-0.4,0.9,-1.9,3.5,-3,3.6c-3,0.2,-2.7,-2,-4.8,-2.1c-3.7,-0.2,-7.4,2.9,-9,-4.1c1.2,0.2,2.1,0.3,3.1,0.7c-0.8,-0.1,-0.9,-0.4,-0.4,-0.8c-4.3,0,-2.5,-4.5,0,-5.5c-3.1,2.4,-5.5,4.5,-7.3,1c1.1,1.4,0.6,1.6,2,3.4c-3.1,2.7,-7.7,-0.7,-11.1,1.2c-3.6,2,-1.3,3.1,-2.9,5.4c-2.6,3.7,-9.7,-0.1,-10.1,4.8c-5.4,4.2,-8,-4.1,-11.8,-5.9c1.5,-0.6,2,-0.9,3.9,0.4c-0.4,-3.2,3.7,0.2,6,-0.3c-0.8,-0.3,-1.4,-0.1,-2.3,-0.6c2.3,-1.3,4.2,-1.9,7.3,-2.9c-0.9,0.2,-1.6,0,-2.6,0.4c-0.1,-0.2,-0.2,-1.7,0.5,-1.2c-0.2,-1.7,-1.1,-1.7,0,-3.6c-1.6,0.3,-1.9,0.2,-3.5,0.9c3.8,-0.6,2.5,3.8,0.1,4.8c-2.5,1.1,-6.9,0.2,-8.5,-1.4c-0.8,0.2,-1.5,0.5,-3.3,0.5c0.4,0.9,0.2,0.6,1.1,1.3c-0.3,0.7,-1.1,1.2,-1.4,1.9c-0.4,-2.3,-2.1,-3.8,-4.1,-4.8c10.5,0.6,8.7,-14.5,-3.4,-10.2c0.7,-1.9,0.3,-2.4,0.3,-3.3c4.5,-2.8,12,-4.4,12.3,-8.5c-2.1,-3,4.7,-2.9,4.2,0.1c2.4,0.1,3.9,-0.9,4.2,-2.7c1.6,1,2.1,0.7,4.2,1.3c-1.8,-2.8,3.8,-5,4.9,-8.2c1.1,1.2,1.8,1.2,2.6,2.7c-2.3,-5.4,4,-3.5,6.6,-4.4c3.4,-1.2,8.2,-4.6,10.9,-6.3c8.8,-5.4,15.4,-15.8,14.7,-26.6c2.7,0.4,3.6,-1.1,5.7,-2.4c-4.4,1.1,-5.6,2.4,-8.1,-1.7c-1.8,-2.9,-1.5,-4.3,0.1,-7.5c1.6,-3.3,4.8,-4,7.5,-7.1c-5.4,2.7,-8.2,3.4,-10.4,-5.1c0.5,1.9,1.3,-7.9,0.5,-6.3c0.6,-1.2,3.2,-1.7,4.5,-3.1c-0.8,0.5,-2.3,0.8,-2.9,1.1c0,-0.4,0.9,-0.9,0.4,-1.3c-3,2.8,-12,1.5,-16.8,4.2c-4.7,2.7,-1.3,6.7,-4.9,8.6c-1.2,-5.4,-9.1,-3,-10.4,-0.3c-5.1,-2.4,6.6,-11.6,8.4,-14.1c2.5,1.5,6,-2.4,7.7,-4.2c1.9,-2,4.9,-10.5,5.1,-10.5c-0.1,1.1,-0.6,0.5,-0.2,2c1.6,-5.3,6.7,-9.9,11.4,-11.6c2.9,-1.1,18,-4.2,11.2,-9c3.6,1.2,7.5,3.6,12.1,3.8C803,727.9,807.6,723.1,813.8,722.4zM757.1,716.1c1.4,0.5,5,0.3,6.3,1.4c2.4,2,0.5,4.1,3.8,4.9c0.5,1.9,0.6,4.6,2,5.1c2,0.8,4.6,-2.6,7.7,-1.1c-5.2,6,-10.5,11.6,-16.4,15.1c0.8,0.2,1.2,0.3,1.6,0.7c-2.4,-1,-2.9,-1.1,-4.6,-0.7c0.8,-2.1,1.1,-2.9,1.6,-4.8c-0.7,1.2,-2.1,2.1,-2.9,3.2c-0.7,-2.1,-1.6,-1.3,-2.3,-1.9c-1.4,-1.1,-0.4,-2.3,-1,-3.3c-1.1,-1.7,-2.1,-2.8,-2.9,-4.8c-0.5,-1.2,0.3,-3,-1.1,-5.1c1.9,-2.1,0.2,-5,1.3,-6.5c0.9,-1.3,4.7,-0.9,5.8,-0.7C755.3,716.4,756.3,716.7,757.1,716.1z"/>
		<path id="GB-UKK" title="null" class="land" d="M848.3,851.5c0.2,-0.9,0.4,-1.7,0.6,-2.6c1.8,1.9,8.3,-1.1,9.3,-3.8c1.3,-3.4,-2.4,-6.1,-0.3,-10c1.8,3.4,3.2,0.7,4.5,1.1c0.5,0.1,3.5,2.5,3.5,2.5c6.1,0.4,5.2,-5.4,9.7,-5.5c-0.5,1.3,-0.8,2.6,-0.8,3.9c3,-1.5,7.1,-2.4,10.4,-2.9c1.5,-0.2,3.9,2.3,5,1.3c1.1,-0.9,-3.1,-7.3,2.9,-6.7c3.4,0.3,3.6,6.3,8.1,5.6c-2.6,3.2,-1.3,6.9,-1.6,10.5c-0.5,6.3,-5.9,12.4,0,18.2c-0.7,0.2,-1.3,0.3,-2,0.1c0.5,2.6,4.9,13.6,6.1,17c0.2,0.5,3.4,11.8,3.9,10.7c-1.5,3.1,-2.1,3.2,-2.6,7.9c-13.9,-7.4,-0.3,19.5,-5,22.4c-3.3,2,-14.1,-7.2,-15.5,-0.6c-0.3,1.5,5.9,5.1,6.5,5.9c-1.6,-2.2,0.3,5.2,0.3,3.1c0.1,7.5,1.2,6.9,6.9,10.7c-4.4,1.3,-10.9,0,-14,4.2c0.9,-3.4,-6.5,-4.1,-6.9,-0.4c1,-0.7,2,-1.1,3.2,-1.2c-0.5,2.7,2.4,3.2,3.5,1.9c1.1,3,1.5,4.8,-1.5,6.8c-3.7,2.4,-8.6,-1.6,-13,-2.2c-3.2,-0.4,-8.6,-1.6,-10.7,1c-3.1,3.7,4.5,3.4,-0.7,7.8c2.5,-9.8,-14.9,-16.1,-22,-16.6c-5.5,-0.4,-13.1,1,-17.7,3.7c-2.1,1.2,-3.8,4.4,-6.3,4.7c-5.4,0.6,-2.5,-2.4,-5.8,-5.4c0.4,1.5,0.3,6.8,2.1,5.5c-2,3.5,-3.5,6.1,-8.1,5.9c1.5,-0.2,3,-0.2,4.5,0.1c-1.4,2.3,-1.2,4.4,0.8,6.1c-4.5,-0.5,-5.3,5.6,-0.1,5c-6.6,8.3,-0.6,0.4,-7.8,-0.1c7.2,3.1,-3.9,9.4,-0.4,14.4c-2.3,1.4,-4.5,1.4,-6.7,-0.1c0.5,-0.6,1.2,-1.1,2,-1.3c-0.5,-0.2,-1.8,-2,-2.1,-3.1c0.4,0.8,0.2,1.4,-0.6,1.7c1.9,1.4,1.1,3.7,-1.1,3.1c-3.9,-1,-2.3,-4.3,-5.4,-6c-2.9,-1.6,-17.4,-0.9,-8.8,-7.6c-4.4,5.8,-5.8,-2.5,-3.6,-5.8c-2.4,3,-1.5,1.7,-3.7,-0.1c5.2,4.3,-3.5,5.7,-3.8,5.9c0.9,0.4,9.3,0.2,3.5,2c1.1,0.2,2.1,0.4,3.2,0.5c-0.4,2.6,-0.7,2.8,-2.7,3.8c-0.3,-9.6,-20.9,1.7,-20.7,-2.9c-3.9,6.5,-2.7,-3,-6.4,1.8c-1.5,1.9,0.3,5.4,-1.5,7.1c-1.4,1.3,-4.5,1.8,-7,3.3c-1.5,0.9,-3.1,3.6,-4.9,4.4c0.5,-0.7,0.7,-1.6,0.6,-2.4c-0.1,0.6,-0.5,1,-1.1,1.3c0.8,-2.2,-0.3,-4,-2.6,-4.1c1.9,1.4,1.9,2.6,0,3.4c0.6,0.5,1.2,1,1.8,1.6c-1.3,-0.1,-4.6,3.6,-7.8,4.3c0.1,0,6.9,-0.5,4.3,0.4c7.8,-0.6,-4.1,9,-5.5,10.2c-2.4,-2.3,-4,-7,-3.4,-10.3c-2.6,1.5,-5.1,-2.6,-8.7,-2.8c-5.6,-0.3,-2,1,-5.5,3.5c-2.5,1.8,-3.6,6,-7,2c-2.8,-3.3,0.6,-8.2,2.9,-10.2c3.5,-3.1,7.6,-1.5,10.3,-2.4c3.8,-1.2,7.1,-4.3,9.8,-7.1c4.8,-5,13.3,-12.7,10.9,-20.3c2,0.8,3.6,0.3,4.8,-1.6c-0.3,3,2.5,3.8,4.9,3.4c-1.8,0.1,-5.6,-2.6,-4.4,-4.9c0.4,-0.7,4.7,-0.6,5.8,-1.2c3.7,-2.2,10.4,-10.8,12.2,-15c1.4,-3.3,1.3,-7.2,1.8,-10.8c0.6,-4.8,-0.2,-7,4.4,-8.1c6.1,-1.4,7.3,3.6,12.5,-3.6c0.9,1.7,1.5,0.3,1.2,2.7c0.7,-3.2,3.8,-5.1,6.9,-3.9c-2.5,-1.4,-4.6,-1,-6.4,1.2c-1.5,-1.8,-1.7,-4.9,-3.8,-6.3c2.6,-0.3,3.2,-1.6,1.7,-3.8c1.7,-0.7,3.4,-1.2,5.1,-1.4c2.9,-1.3,7.1,-0.9,10.2,-1.4c6.8,-1.2,11.6,-0.7,18.3,0.4c5.1,0.8,10.2,3.1,15.3,3c3.8,0,15.5,-5.3,11.3,-0.2c3,-1.6,4.8,-14.9,3.8,-16.7c4.1,-0.1,14.7,-10.2,16.1,-13.1C850.5,867.5,842.8,858.8,848.3,851.5z"/>
		<path id="GB-UKJ" title="null" class="land" d="M917.1,937.7c7.9,1.8,13.6,3.8,7.3,11c-9.6,10.9,-11.9,-6.2,-22.1,-2.5c2.7,-1.8,7.1,-6.7,10.2,-4.4c0.1,-0.7,-0.2,-0.9,-0.8,-0.7C913.9,940.4,915.5,939.1,917.1,937.7zM935.2,932.8c0,0.6,0.3,1.4,0.3,2c-0.5,-0.1,-1.1,-0.2,-1.1,-0.2c0.4,0.2,0.8,0.5,1.2,0.7c-0.1,-0.3,-0.7,0.5,-0.8,0.6c1.1,0.7,0.6,0.2,1.2,1c-2,-0.2,-3.5,-0.7,-4.5,-1.6C932.8,934.1,933.8,933.4,935.2,932.8zM1022.2,882.3c0.8,0.4,12.3,3.4,9.8,6.6c-2.8,3.6,-9.7,-1.2,-11.1,-3.7C1022.5,885.4,1021.5,884.1,1022.2,882.3zM950.4,820.8c4.3,5.4,3.6,7.9,-0.2,12.8c-4.1,-2.4,6.9,20,6.4,18.2c-1.1,0.8,-9.8,-1.8,-9.8,-0.3c1.9,4.5,5.3,6.9,10.2,7.3c-1.3,1.8,-0.7,2.5,-0.6,5c1,-0.2,1.2,-0.1,2.1,0c-7.8,9.7,11.6,22.6,9.5,28.9c1.8,-2.6,4.8,-6.1,4.8,-0.3c0.9,-0.6,12.3,2,12.4,3.2c6.5,2.5,6.7,-11.1,10.3,-15c7.8,3.8,11.2,-2.2,18.5,-0.9c5.5,1,6.5,5.6,3.7,2.8c-0.5,0.4,-0.4,0.7,0.3,1c-2.1,0.7,-1.5,0.3,-2.9,2.1c-1.4,-0.3,-2.4,0.1,-3.9,0c1.4,0.9,3,1.9,4.3,2.6c0.5,-0.1,0.6,-0.4,0.3,-0.8c0.3,0,0.6,0,0.8,0c-0.2,0.4,-0.3,0.7,-0.5,1.1c0.5,-0.5,1,-1.3,1.2,-1.7c0.4,0.6,0.9,1.2,1.3,1.7c0.9,-0.4,0.2,-1.2,1.5,-1.3c-0.1,0.3,-0.2,0.5,-0.4,0.8c0.4,-0.2,0.8,-0.3,1.2,-0.5c-1,-2.1,-1,-1,0.5,-2.9c-4,11.2,42.9,-1.6,35.7,8.1c0.1,0,-3.4,14.1,-5.1,17.4c-13.2,0.5,-12,10.1,-18.4,14.3c-1.7,1.1,-6.7,-0.1,-8.6,1.1c-11.1,7.3,-25.2,14,-37.9,11.8c-9.5,-3.6,-37.7,-8.9,-43.4,4.3c-1.9,-2,-4.9,-3.9,-6.5,-5.5c0.4,0.1,0.5,0.3,0.3,0.6c2.1,-2.8,4,-0.4,5,-3.9c-1.4,2.1,-2.2,1.9,-4.5,2.1c0,-0.6,0,-1.8,0.3,-2.6c-0.3,-0.1,-0.7,-0.1,-1,-0.2c0.1,1.1,0.3,1.7,0.1,2.9c-0.7,-2,-1,-0.8,-1.1,-3.3c-2,0.4,-2,0.1,-4.4,0c0.3,-0.2,-0.3,1.4,-0.3,1.3c-0.9,-0.2,-0.1,-0.6,-1.3,-0.5c0.8,1.3,-18.5,-2.9,-16.8,-6.8c0,0.1,-3.4,1,-5,-0.3c2,1.8,4.4,4.9,7.5,6.6c1.1,2,-0.2,4.3,-3.7,4.8c0.2,0.3,0.5,0.3,0.9,-0.1c-3.6,2.2,-8.5,1.5,-9.2,5.4c-4.1,-1.2,-7.8,-2.6,-8.9,-5.3c-4.9,2.2,-3.6,-4.3,-3.6,-7.2c-0.1,-2.6,-1.6,-3.9,-2.3,-4.9c-1.8,-1.2,-3.3,-2.6,-4.6,-4.3c0,-2.4,14.9,1.6,17.1,-2.8c2.1,-4.3,-11.4,-23.8,3.5,-18.7c0.2,-2,0.3,-4.6,0.6,-6.9c2.4,-0.7,-7.2,-24.7,-8,-28.6c1.2,0.3,1.3,0,2,-0.1c-7.9,-8.2,4,-18.2,-0.4,-25.2c4.4,6.5,13.3,-13.1,14.3,-11.2c0.4,-0.9,2,-2.8,2.7,-3.6c1.4,1.8,2.9,3.6,4.3,5.5c-1,0.1,-2.4,1.4,-3.6,1.6c1.3,5.1,4,12.9,10.2,5.7c-0.6,-0.2,-1.1,-0.5,-1.7,-0.7c5.9,-8.4,10,-0.3,13.3,-1C935,835.2,951.3,819.8,950.4,820.8z"/>
		<path id="GB-UKI" title="null" class="land" d="M958.6,870.6c1,-4,10.8,-1.1,13.1,-6.7c2.3,2.5,4.4,-1.6,8.1,-0.9c5.6,1,1.8,2.6,5.7,5.1c4.2,2.8,5.9,-2,10.3,-0.7c1.4,0.4,4.7,5.8,5.4,7.3c-4.3,1.5,-6.6,4.4,-8.2,8.8c-1.4,4.1,-2.2,13.9,-7.9,11.7c-0.4,-5.6,-2.5,-1.6,-5.2,-1.9c-0.4,0,-1.9,1.4,-3.1,1.3c-2.8,-0.2,-0.3,-5.2,-4.1,-2.6c0,-5.6,-3,-2.4,-4.8,0.3c1.8,-6.5,-2.5,-5.4,-6.3,-9C957.3,879.4,961.5,876.2,958.6,870.6z"/>
		<path id="GB-UKH" title="null" class="land" d="M1033.6,852.7c0.7,0.2,1.3,0.5,2,0.7c-1.5,1.7,-3.3,2.3,-5.5,2C1030.5,853.7,1031.7,852.8,1033.6,852.7zM1019.3,753.8c3,1.6,5.1,0.2,7.9,1.1c0,0.5,0.1,1,0.4,1.5c0.6,-1.7,12,-0.8,6.5,-1.2c18.6,-2.3,37.5,16.5,38.8,33.9c0.8,11,-3.8,17.9,-5.6,28.1c-1.9,10.4,-3.4,13.7,-11.8,20.7c-2,-2.3,-2.1,-5.4,-4.2,-7.6c2.6,4.6,4.2,7.8,0.3,12.2c-1.6,-4.3,-4.9,-5.6,-8.4,-8.2c1.6,2.4,6,2.8,6.3,6.1c-3.6,0.8,-7.2,-0.2,-10.8,0.7c3.6,1,8,0.9,11.6,0c-0.7,2,-3.1,5.3,-3.5,6.3c1.9,0.1,1.5,-2.5,2.1,0.9c0.5,-0.7,1.6,-2.1,0.6,0.3c-0.8,2.1,-2.2,3.4,-3.9,4.8c-2.3,1.7,-8.4,4.9,-9.4,0c0.9,-0.2,1.7,-0.6,2.4,-1.1c-2.4,1.1,-4.3,-0.4,-4.4,-2.8c-0.2,0.9,-0.1,1.7,0.2,2.6c-0.5,-0.2,-1,-0.4,-1.6,-0.5c2.7,1.7,-3.2,4.2,-5.4,3.4c3,1.3,2,1.6,0.3,2.7c-1.6,1,-7,2.5,-8.1,1.3c1.6,1.7,5.6,1.5,2.2,3.7c6.8,-5.7,12.4,-5.1,10.2,4.7c-2,9,-8.8,6.8,-17.2,8c4.1,3,-3.5,1.6,-4.8,0.4c3,2.8,-0.6,1.2,-2.8,2.7c-1.7,1.1,-1.8,2.6,-4,3.1c-6.9,1.4,-9.5,-3.9,-2,-6.6c-3,-5.5,-3.5,-6.3,-9.2,-7c-2.3,-0.3,-3.8,1.4,-6.4,0.3c-3,-1.2,-1.2,-3.9,-4.6,-5c-2.9,-0.9,-21.5,4.3,-22.2,7.4c-2.2,-1.9,-1.8,-4.9,-0.2,-7c-2.8,-0.2,-3.4,-2.2,-1.5,-4.9c-2.4,-0.5,-11.8,-3.4,-10.2,-7.3c1.2,-2.7,7,2.1,9.8,0.3c-1.6,-5.4,-6.3,-5.1,-7.2,-10.9c0.4,2.5,2,-9.9,0.8,-7.3c0.8,-1.7,-0.7,-11.3,1.1,-15.7c1.7,-4,2.4,-0.5,4.4,-1.6c2,-1.1,3.1,-6.5,4.1,-8.1c1.2,-2.1,4.4,-5.4,5,-7.6c0.9,-3.1,-0.3,-4.7,-1.6,-7.5c-1.1,-2.4,-2.3,-6.8,-4.4,-9.5c6.5,-0.1,19.1,1,24.6,-1.4c3.3,-1.4,2.3,-3.3,4.1,-4.4c3,-1.7,6.9,-1.1,9.6,-3.5c1.3,-1.2,0.8,-3.5,2.5,-5.2c1,-1,4.2,-1,5.5,-2.3c3,-3,2.1,-8.2,5.3,-10.7c3.2,-2.6,6.4,0.4,9.4,-1.5c-0.8,0,-1.5,-0.2,-2.2,-0.6C1018.2,753.9,1018.7,753.9,1019.3,753.8z"/>
		<path id="GB-UKG" title="null" class="land" d="M882.6,735.2c5.1,0.4,8.9,4.7,10.5,10c1.9,6.4,0,7.2,-2.2,12.3c-1.6,3.9,-1.3,4.4,2.2,6.7c1.7,1.1,6.9,1.5,7.8,2.6c2.2,2.8,0,2.9,-1.1,5.7c-1.9,4.8,-3.1,1.3,-0.3,5.2c1.8,2.6,1,0.5,2.4,1.8c3.9,3.8,1.2,5.6,3.5,9.1c1.5,2.3,28.7,19.2,14.5,21.6c5.9,3.2,-2.3,12.7,-6.4,16.8c2.4,4.5,-1.7,-0.2,-3.3,0.9c-1.6,1.1,-2,3.5,-3.2,5.6c-1.7,2.9,-0.4,4.8,-3.5,6c-3,1.1,-5.9,-1.4,-2.3,-4.9c-6.2,1,-6.9,-11.5,-12.5,-2.4c0,-0.1,2.5,2.5,1.5,3.3c-1.7,1.4,-1.8,-1.5,-4.3,-1c-3.7,0.7,-8.2,1.2,-11.2,2.8c0.3,-0.8,-0.1,-2.3,0.8,-3.9c-4.5,0,-1.9,6.7,-9.2,5.9c-1.7,-0.2,-1.2,-3.2,-2.5,-3.7c-1.4,-0.5,-1.9,1.8,-2.6,1.7c-1.5,-0.2,-2.5,-0.3,-3.5,-2.1c-2.8,5.2,2.5,7.3,0,11.1c-1.4,2.1,-5.9,2.5,-8.1,4c-0.1,-0.1,-0.7,-1.2,-0.8,-1.3c-0.1,1.3,-0.9,2.1,-1.1,3.2c-2.1,-1.9,-4,-4.1,-6.2,-5.9c-2,-1.7,-4,-2.6,-6,-3.4c-1.2,-0.5,-2,1.7,-3.6,0.8c-3.7,-2.1,-9.3,-13.2,-6.9,-16.2c-1,-0.6,-0.9,-0.4,-1.5,-1.2c1.4,-0.7,2,-2.1,2.8,-2.6c-4.3,0.2,2.7,-8.5,6.3,-8.6c-2.7,-1.2,-1.4,-1.8,-2,-4.1c-0.8,-3.4,3.1,0.5,-0.3,-2.8c-1.6,-1.5,-10.8,-3,-11,-7.4c-0.2,-5.3,7.9,-4.4,10,-6.9c1.3,-1.6,4,-3.9,-0.3,-4.2c-1.3,-0.1,-3.5,2.7,-4.8,2.9c-0.9,-3.8,0.9,-4.3,2.4,-7.6c0.8,-1.8,4.7,-7.3,4.8,-8c0.4,-4.9,-6.9,-3.3,-8.8,-8.5c-1.4,-3.8,4.7,-10.9,8.9,-11.7c2.5,-0.4,5.8,2.6,8.2,2.9c2.8,0.3,1.3,1.4,4.3,0.3c1.4,-0.5,1,-2.9,0.4,-4.3c6.9,-3.3,12.1,5.5,17.9,-2c1.2,-1.6,-0.7,-3.9,0.7,-5.3c1.1,-1.2,3.8,-1.4,4.8,-2.2c2.9,-2.2,6.7,-5.2,6.9,-8.2C877.5,739.7,880.4,737.4,882.6,735.2z"/>
		<path id="GB-UKF" title="null" class="land" d="M886.7,707.3c8.5,0.2,8.7,15.6,16.1,17.4c-0.6,0.6,-1.1,1.3,-1.7,1.9c2.7,1.2,4.2,0.8,7,0.5c1.5,-0.1,2.2,-1.7,3.8,-1.9c1.6,-0.2,0.7,1.7,1.4,1.7c1.6,0,3.4,-1.1,4.8,-0.8c0.9,0.1,1.2,2.9,4.5,2c3.8,-1.1,3.3,-7.1,6,-9.9c0.7,-0.8,2.6,0,2.9,-0.3c0.1,-0.1,2,-2.4,2.3,-2.6c0.9,-0.6,5.3,-6.2,3.4,-1.6c1.5,0.3,5.1,1.4,6.4,0.8c1.6,-0.8,1.6,-4.9,2.3,-5.3c6.9,-3.4,5.4,4.6,6.8,5c4.8,1.4,16,-8.2,6.7,-6.7c2.6,-4.5,9.8,0.9,9.7,-6.3c2.2,1.7,3.6,3,5.9,3.7c-1.7,3.1,-1.5,8.4,1.7,10.6c4.6,3.2,1.3,-4.2,4.8,-6.4c6.1,-4,12.4,8,14.4,11.9c4.8,9.7,10,20.5,0.4,27.7c-4.2,3.2,-8.3,6.6,-9.1,12.4c4.2,0.4,6.7,8.4,11.3,7c-1.2,2.1,-0.2,4.9,-1.1,6c-2.8,3.3,-5.6,1.4,-8.7,3.7c-0.9,0.7,-2.2,3.7,-2.3,3.7c-1.9,0.9,-2.4,0.1,-4.7,0.7c-3.5,0.8,-17.9,1.7,-23.2,1.6c2.2,2.7,-1,7.2,3.9,5.9c-0.1,4.3,4.2,5.3,4,9.3c-0.1,3.4,-6.4,6.6,-7.7,8.6c0.5,-0.8,0.1,4.5,0.2,3.9c0.3,-1.1,-4.1,5.3,-2.6,4.7c-0.7,0.3,-3,-0.9,-2.7,-1.3c-0.3,0.3,-2.4,0,-2.9,0.5c-0.5,0.4,0.8,3,0.4,3.6c-2.7,3.5,-10,9.3,-10.6,12.9c-1.2,6.5,-4.4,-0.1,-6.6,-0.6c-2.4,-0.5,-7.3,2.2,-8.8,4.2c0.6,0.2,1.1,0.5,1.7,0.7c-6.3,7.2,-8.8,-0.4,-10.2,-5.7c1.1,-0.2,2.6,-1.4,3.6,-1.6c-2.6,-3.3,-3.4,-3.9,-3.4,-7.1c-0.1,3.1,3.1,-5.7,1.9,-3.6c1.5,-2.9,5.6,-5.7,0.8,-8c14.3,-2.5,-13,-19.3,-14.5,-21.6c-2.3,-3.6,0.4,-5.3,-3.5,-9.1c-1.2,-1.2,-0.7,0.6,-2.4,-1.8c-2.8,-4,-1.6,-0.4,0.3,-5.2c1.1,-2.8,3.2,-2.9,1.1,-5.7c-0.7,-0.9,-6.3,-1.6,-7.8,-2.6c-3.5,-2.3,-3.9,-2.8,-2.2,-6.7c2.2,-5.1,4.1,-5.8,2.2,-12.3c-1.5,-5.2,-5.5,-9.7,-10.5,-10c-0.3,-4.8,-1.2,-11.1,-0.8,-15.3c0.2,-2.9,-0.6,-1.7,0.5,-4.9C883.9,710.8,885.1,711.1,886.7,707.3z"/>
		<path id="GB-UKE" title="null" class="land" d="M944.1,618.1c3.4,5.6,10.5,8.8,14.5,14.6c4.6,6.8,5.4,11.2,12.2,15.4c-5.9,2.4,6.8,5.7,7.2,7.1c1.2,3.7,-4.9,4.7,-5.7,10.3c-2,14,17.8,22.4,19.1,35.6c-3.5,-5.7,-9.1,-0.9,-13.8,-3.4c-3.6,-2,-4.1,-7,-8.1,-8.3c-3,-1,-22.8,2.1,-20.7,5.5c-1.9,-6,5,-0.5,6.5,-0.7c2.4,-0.3,7.1,-1.7,9.6,-1.6c5.9,0.3,17,9.8,19.9,15.7c-5.9,0,-3.6,10.5,-9,6.7c-2.5,-1.7,-0.4,-6.4,-1.2,-8.3c-1.2,-2.6,-1.8,-3,-5.3,-5.7c0.1,6.4,-7.4,2.1,-9.7,6.3c5.1,-0.8,3.1,2.2,0.8,4.4c-4.2,3.9,-5.8,1,-8.3,0.3c-3.9,-1,-0.5,-2.9,-6.4,-1.7c-0.6,0.1,-2.1,3.6,-3.5,4.1c-1.8,0.6,-6.1,-2.2,-4.6,-2.4c-7.7,1.2,-8.8,13.4,-14.7,16.1c-1.1,0.5,-8.2,-1.4,-9.4,-1.5c-2.2,-0.1,-8.9,1.5,-12.2,0.1c2,-2.2,-9.7,-15.6,-12.7,-19c-2.3,-2.6,-4.8,-6.3,-7.2,-9c0.3,0.3,-6.3,-5.8,-5.3,-3.8c-3.5,-7,3.4,-10.6,2.2,-16.6c-1.3,-6.8,-10.2,-10.1,-14,-12.9c-7,-5.2,-13.3,-8.2,-6.2,-16.8c1.2,-1.4,5.5,-1.4,6.3,-2.8c2.1,-3.8,-1,-4.9,-0.2,-8.7c1.2,-6.1,3.7,-8,9.4,-9.9c3.1,-1,17.2,-4.6,18.9,-2.4c0.2,-10.9,13.8,1.9,13.4,0.1c1.4,0.9,2.5,2,3.3,3.4c0.1,-1.7,0.1,-3.3,0,-5c3.1,3.8,6.4,0.8,11,0.4c7.4,-0.6,13.2,-0.7,20.9,0.6C940,619,943.3,621.2,944.1,618.1z"/>
		<path id="GB-UKD" title="null" class="land" d="M846.3,561.7c0.8,4.9,6,10.2,10.3,10c0.5,4.6,-4.4,5.3,-5.5,10.1c4,2.8,0.4,6.4,1.3,9.9c0.4,1.4,-0.8,2.5,0.9,3.5c3.6,2.2,4.1,-2.5,6.7,-2.4c8.2,0.4,2.6,9.6,3.2,13.4c0.2,1.3,3,2.2,3.6,3.7c0.6,1.5,-0.5,3.8,0.9,6.2c2.4,4.1,8.4,6.4,4.7,10.8c-1.4,1.7,-4.1,1,-5.9,3c-0.4,0.4,-0.4,3.7,-0.5,4.2c-0.4,2,-1.4,1.6,-1.4,3.4c0,1.2,1.5,3.7,1.1,5.5c-0.9,3.7,-1,0.9,-2.4,2c-2.9,2.2,-8.8,3.9,-9.6,8.5c-0.8,4.1,0.6,3,3.1,6c0.6,0.8,0.9,3.2,1.4,3.5c0.7,0.4,3.1,-0.1,3.1,0c2,2.1,4,7.4,8.4,5.3c2.3,2.2,4.6,5.3,6.6,8.2c4.2,5.8,0.8,5.2,-1.2,11.5c-2,6.2,-1.2,3.7,2.1,7c-0.3,-0.3,1.7,0.2,2.6,1c0,0,1.1,3.8,1.1,3.9c0.8,1.5,4.8,4.2,5.1,6.5c0.5,3.8,-1.9,2.5,-2.8,4.1c-1.8,3.5,-2.6,7.9,-2.4,10.5c0.2,3.7,4.4,23,-6.5,17c-0.3,5.5,-9.4,8.7,-12,12.4c-1.4,2.1,-0.8,4.8,-4.3,6.1c-2.8,1,-4.7,-0.5,-6.5,-0.8c0.2,0,-4.5,-0.9,-4.7,-0.9c-2.2,-0.5,-3.6,0.7,-6.1,-0.7c-3.2,-1.9,-2.3,-3.9,-4,-7c-0.7,-1.4,-3.7,-4.6,-3.9,-5.9c-0.4,-2.2,2.5,-2.1,1.9,-4c-1.5,-4.7,-7.4,-4.9,-9.8,-7.6c0.4,0.3,0.7,0.2,0.8,-0.1c-0.8,-0.7,-4,-5.8,-4.3,-6.8c-0.7,-3.2,-1.3,-5.8,4.2,-6.5c2.5,-0.3,4.4,-1,3,2.1c2,2.3,3.9,8.8,7.9,9.8c0.6,0.2,5.1,-1.1,5.2,-1.2c2.5,-2.4,0,-1.2,-0.8,-1.8c-2.2,-1.9,-7.2,-1.2,-9.8,-5c-2.3,-3.4,-2.7,-7,-4.1,-10.3c-2.1,-5.1,-1.9,-6.2,1.3,-11.7c0.9,-1.5,4.7,-4.8,4.7,-6.2c0,-3,-3.9,-1.9,-5.6,-5.9c-1.2,-2.9,-0.8,-12.7,2.5,-13.1c-0.1,2.2,0.4,4,1.5,5.9c0,-0.8,-1.7,-4.6,-1.1,-5.6c1,-1.9,5.8,-1.8,7.4,-3.4c-8,-8,1.8,-7.3,3.2,-14.4c-1.1,-0.5,-2.7,-2.3,-2.8,-4.1c-0.1,-1.7,3.9,-4,1.6,-6.1c0.5,1.5,-3.5,5.6,-5.3,6.6c-4.5,2.6,-4.7,-0.9,-6.7,-5.1c1.1,3.3,-6.3,12.8,-5,14.2c-1.2,-1,-1.9,-1.6,-2.8,-3.7c-0.5,0.6,-0.2,0.7,-0.9,1.4c-1.6,-2.2,-0.7,-4.4,-2,-6.3c2.6,-1.4,2.5,-3.4,3.7,-6.2c-0.2,0.2,-0.5,0.5,-0.7,0.7c-0.5,-1.4,-1,-2.6,-1.5,-3.6c0.2,14.3,-12.5,1.4,-9.3,-7.1c0.4,1,-0.1,0.6,0.6,1.3c0.2,-0.2,0.5,-0.4,0.7,-0.6c-0.1,-0.2,-1,-0.1,-1.1,0.2c0,-0.3,0.3,-2.2,0.3,-2.2c-1.8,0.3,-0.4,0.3,-2.1,-0.2c0.3,1,0.5,1.2,0.6,2c-2.1,-2.3,-9.3,-10.7,-9.8,-12.9c-0.4,-1.6,1.2,-11.4,2.1,-14.2c0.8,-2.5,5.9,-6.2,7.4,-9.5c1.6,-3.7,-0.4,-11.1,5.2,-12.4c-0.1,-0.1,1.9,1.5,2.7,2.3c0,-0.5,-0.5,-1.4,-0.5,-1.7c1.8,-0.4,1.3,-0.3,2.1,-1.7c0.9,0.2,0.8,0.4,1.4,0.4c-5.3,1.5,-4.4,-3.4,0.9,-4.3c2.9,-0.5,4,3.4,8.4,0.8c-1.1,-0.1,-1.4,-0.4,-2.5,-0.4c1.8,-2.7,3.1,-5.6,2.8,-9.2c4.4,2.8,5.8,-1.9,8.4,-4.5C839.8,566.8,844.1,565.5,846.3,561.7z"/>
		<path id="GB-UKC" title="null" class="land" d="M879.9,506.4c1.2,1.7,2.6,2.3,1.3,3.8c3.1,3.1,6.3,9.9,10.1,11.6c0.3,-0.7,0.6,-1.4,0.9,-2.1c1.1,2.4,0.8,2.3,0.3,3.8c0.2,0.4,0.5,0.8,0.7,1.2c5.1,-4.6,15.6,49.7,18.7,52.9c-1.2,0.2,-0.7,0.2,-1.4,0.6c0.4,0.6,0.8,0.6,1.2,-0.1c4.1,6.8,1.2,22.6,11.8,27.7c-3.1,2.1,2.9,4.5,-1.3,6.7c2.1,-0.9,2.1,-0.1,3.2,-1.5c6.2,3.5,11.7,5.1,18.4,7.2c-2.1,1.2,-3.6,3.5,-3,6.2c-5.9,-0.7,-26.8,-3.3,-29.6,0.8c-0.6,-0.6,-1.8,-1.3,-2.2,-1.8c0.1,1.1,-0.1,4.5,0,5c-1,-2.3,-2.1,-2.3,-3.3,-3.4c0.1,0.4,0.2,0.8,0.3,1.2c-2.8,-1.1,-13.4,-12,-13.7,-1.3c-2.2,-2.7,-13,3.8,-17.1,1.6c-1.4,-0.7,-7.6,-12.6,-8.9,-15.1c0.8,1.5,-1.3,-5.3,-1.1,-3.5c-0.6,-5.1,-3.1,-10.4,-4.8,-13.7c-0.1,-0.2,-5.1,3,-6.9,0.1c-1.8,-2.9,0.9,-10.3,-2.3,-12.4c1,-4.7,6.2,-5.3,5.5,-10.1c-21.5,1.2,1.4,-31.1,5.1,-23.7c4.7,-7.1,9.4,-6,9.3,-13.4c0,-4.4,-7.4,-9.5,-6.5,-13.3c-0.6,2.5,7.6,-5.4,7.4,-5.2C874.1,513.7,877.4,507,879.9,506.4z"/>
	</g>
</svg>