<?xml version="1.0" encoding="utf-8"?>
<!-- Generator: Adobe Illustrator 22.1.0, SVG Export Plug-In . SVG Version: 6.00 Build 0)  -->
<svg version="1.1" id="Layer_1" xmlns:amcharts="http://amcharts.com/ammap"
	 xmlns="http://www.w3.org/2000/svg" xmlns:xlink="http://www.w3.org/1999/xlink" x="0px" y="0px" viewBox="0 0 1920 1080"
	 style="enable-background:new 0 0 1920 1080;" xml:space="preserve">
<style type="text/css">
	.st0{fill-rule:evenodd;clip-rule:evenodd;fill:#DFE1E2;stroke:#FFFFFF;stroke-width:1.8506;}
	.st1{fill-rule:evenodd;clip-rule:evenodd;fill:#DFE1E2;}
	.st2{fill:#DFE1E2;}
</style>
<defs>
	
	
		<amcharts:ammap  bottomLatitude="49.162400" leftLongitude="-10.476971" projection="mercator" rightLongitude="1.765388" topLatitude="60.846439">
		</amcharts:ammap>
</defs>
<path id="SCOTLAND" class="st0" d="M294.7,35.1l-12.8-12.8l-15.1-11.1l-8.3-15.6l3.3-26.9l0.6-19.5l-18.5-32.9L229.4-72l1.2,21.8
	l8.9,16.7l-4.4,5.7l-8.4-8.4l-14.6-14L201-54.7l-5,9l3.3,23.4l-16.8-15.6l-5.6,11.1l2.8,18.5l12.3,11.7l8.9,2.1l9.5-16.1l12.9,13.4
	l-9,14.5l22.4,33.5l20.6-2.7l7.2,14l10.1-14.6l9,5l-3.9,12.3l-10.1,21.8L283,82l8.9-7.8l13.5-22.9l11.1-6.7l8.9,0.6l-22.3,33.5
	l12.2,10.6l-23.9,8.3l-12.3,26.9l26.3,1.1l-18.5,19.5l-11.7,5.6l-31.3,1.7l-7.8,12.9l62.5,8.9l-26.3,7.2L268,187l12.8,20l15.6,1.2
	l12.9,9.5l39.6-31.3l26.9-26.3l-16.8,27.9L331,242.2l-13.4,32.4l7.8,26.8l-17.3,35.2l-12.8,21.8l8.9,8.4l9.5-2.2l-14,20.6l10.6,15.6
	l-18.5,46.9l-0.5,32.4L278,493.4l-3.4,22.3l31.3-2.7l7.8-9l17.3-90.4l21.8-12.9l-14-32.9l-5-15l2.8-14.6l6.1,1.7l14.6-15.6l-5,18.5
	l-4.5,18.4l3.9,14.6l14,12.3l23.9,26.8l5.1-16.7l8.4-25.2l3.3-17.3l11.7-6.2l14,1.2l16.1,10.1l-13.4,0.5l-13.4-2.7l-7.8,7.8
	l-3.9,20.1l5.6,21.2l-10.1,11.7l26.9,24.5l6.6,7.2l0.6,30.8l-13.4,10.5l-5.6,10.1l-6.7,11.7l-10.1,28.5l-17.9,17.8l-6.1,19l3.3,35.7
	L370.6,590l-8.9,2.8l-1.2,14l3.4,18.9l20,23.4l5.6,25.7l9.7,5.5l2.6,1l-11.7-45.5l17-9.5l20.5,15.9l4.8,3.6l36.3,26.8l7.8-30.7
	l-15-15.1l8.3-5l17.9,12.8l27.3,15.6l16.2,4.5l19.5-10.5l6.6-15.6l25.7,1.7l2.8-29l42.7,2.6c7.2-3.6,14.4-7.3,21.7-10.8
	c11.3-3.8,18.1-14.3,26.9-21.7c10.2-10.5,21.9-19.6,31.2-30.8c9.7-6.8,17.3-16,26.2-23.8c8.6-8.6,17.8-16.6,26.3-25.2
	c4.5-4.6,9.8-8.2,13.7-13.4c-0.6-4.8-3.6-9-5.4-13.4c-4.4-10.2-9.4-20.1-13.8-30.3c-1.6-3,1.1-5.4,3.2-7.2c12.5-11,25.1-22,37.6-33
	c0.8-0.9,1.9-1.5,3.1-1.8l-4.1-7.8l-11.2-12.2l-25.6-2.8l-11.7-12.3l-16.8-6.1l-7.2-13.5l-21.8,2.8l-11.7,18.5l-14,5.6l-16.7,0.5
	l-14.6-7.2l-18.4,0.5l-34.7-5.7l-32.8-18.2l6.4-5.7l27.2,11.3l34.5,5.6l22.6-11.7l5.7-14l27.9-19.8l16,8.7l31.3-22.7L690,265.5
	l8.3-7.1l2-12.1l-12.9-2.6l-37.5,15.7l12.9-16.5l38.5-8.6l8.5,3.7l23.4-24.7l11.3-15.7l9.2-28.6l21.4-23.4l13.1-34.1l8.9-26.7
	l3.3-24l4.5-14l16.2-28.4l19.5-20.7l-2.8-12.2l-6.2-26.9l-14-17.8L788.1-57l-35.2,2.8l-23.4-4.5l-30.1-5.6l-15,5.6l-15.6-0.5
	l-23-9.6l-19.5,0.6L615.7-63l-14,6.6l-21.2,2.8L568.8-43l-12.9,5.6l-9.5-6.1l-10.1,13.9l-14,14l-6.6-1.1l14.5-21.2l14-25.7
	l32.9-42.4l-14.5,1.7l-23.4,6.6l-11.7,1.2l21.2-20.1l0.6-16.2l18.4-7.8l2.8-12.2l27.9-21.8l16.7-11.7l10.1-14l10.5-9.5l21.3-11.2
	l13.4-12.2l4.4-17.9l-13.9-4.5l16.1-39.7l-48.5-5.6l7.2,12.3l-2.7,6.2l-30.2-10.6l-27.8,9.5l-42.5,5.1l-28.4,6.2l-23.4-12.9l-14,6.7
	l-14.6-6.7l-23.9-15l-9.5,9.5l-11.2,22.4l15.6,17.3l-14.5,3.9l-7.8,6.2l7.8,25.7l-25.7,6.6l-16.2,3.3l12.3,19.5l5,14h-12.8l-14-2.7
	l22.4,23.4l17.8,19.5l-27.3,1.1l-13.9,14l-19-12.8l-7.2,15l-13.4-2.8l-9,3.9v24l16.2,9.5l-17.3,20.7l17.9,17.8l5,8.4l-7.2,1.2
	l-18.9-12.9L298-30.1l-1.7,16.7L307.5,9l23.4,1.7l-13.9,16.7L294.7,35.1z"/>
<path id="WALES" class="st1" d="M321.5,1338.6l11,11.4v12.3l-12.3,1.8l-8.8,7l12.3,13.1l2.2-7.9l21.5,3.5l-14,7.4l7.9,11l14,9.6
	l14.9-13.6l11,2.6l10.5-4.4l5.7-14.9l4.4-3.9l32.9,0.4l11-7l-1.3,11.8l9.2,14l17.5-2.6l3.9,5.3l13.1,1.3l-15.3,7.4l-12.3-1.8
	l-6.6,6.1l2.2,9.6l14.5,8.3l9.6-4.8l21.5,0.4l4.8-10.5l3.1-3.1l18-3.1l16.7,39l11.4,0.9l15.8,17.5l33.7,2.6l24.1-3.1l0.4-11.8
	l28-23.2l15.8,4.4l23.2-11.4l11.7-13.1c-0.8-1.2-1.6-2.4-2-3.8c-0.9-10.1-1-20.2-1.3-30.3c-0.1-5.8,0.3-11.6-0.9-17.2
	c-0.2-2.2-2.4-3.1-3.9-4.4c-7.9-5.4-15.6-11.1-23.5-16.5c-5.2-4.2-10.4,3.5-16,2.2c-1.2-1.2-2.2-2.6-2.9-4.1
	c-6.4-12.6-12.9-25-19.1-37.7c-2-3.2-0.7-7,0.4-10.2c6.6-18.7,13.1-37.3,19.6-56c-11-6.3-22.6-11.5-33.7-17.6
	c-2.5-1-3.9-4.6-1.3-6.3c8.5-6.7,17.6-12.7,26.1-19.5c-3.4-2.1-7.3-3.2-10.5-5.5c-2.1-1.6-0.8-4.2-0.1-6.1
	c5.5-12.8,11.6-25.5,16.9-38.4c1.2-2.3-1-4-2.7-5.2c-5.5-4-11.1-7.8-16.6-11.7c-2-1.5-4.2-3.1-4.5-5.8c2.5-7.6,7.3-14.2,10.4-21.6
	c1.3-3.5,4.3-6.2,8.1-6.5c10.6-1.6,21-4.3,31.7-4.8c3.3,4,5.4,8.8,8,13.2c2.3-0.9,4.7-1.6,6.8-2.9c1.7-4,0.1-8.3-0.5-12.4
	c-4.5-1.1-9.1-1.7-13.5-3.4c-3.2-1.2-3.3-5.1-4.1-7.9c-1.7-6.9-2.1-14.1-4.7-20.7c-3.6-3.8-9.3-5-13.1-8.7c-1.2-1.5-1.3-4.1,0.4-5.3
	c2.7-2.7,5.7-4.8,8.4-7.5c-8.5-6.5-17.5-12.3-26-18.7c-2.2-1.6-3.4-3.9-4.4-6.4l-2.8-1.6l-22.8-20.6l-42.9,14.9l-19.7-2.6l-15.8-8.3
	l1.3,12.7l-23.2,8.3l-23.2,3.9l14-19.3l-23.7,0.4l-6.1-12.3l-5.7-17.1l-39.4,3.5l-2.6,18l-17.1,3.1l13.1,18.4l8.8,0.9l14.9,19.3
	l14,9.6l-0.4,22.8l-29.8,22.3l-7,1.3l-31.1,34.6l3.9,2.2l21.9-7l11,9.2l6.6-4.4l-0.4-8.8l18-14l46.5-5.3l-11.4,7.9l2.2,12.7
	l-2.2,9.6l13.6,18.4l-2.2,8.3l-13.6,18l11.8,19.7l1.3,13.1l-14.5,40.3l-13.1,15.8l-21,9.6l-26.7,19.3l-21.5,0.4l-2.6,4.4l-9.2-2.6
	l-5.3,11l-8.8,12.3l-12.3-2.2l-10.1,5.7l-6.1-7l-11.4,2.2l-1.8,13.6l-33.3,14l-0.4,7l3.5,5.3L321.5,1338.6z"/>
<path id="LONDON" class="st2" d="M1081.6,1389.1c5.9-3.7,13.2-2.2,19.8-2.2c0.8,2.9,0.4,6.7,3,8.8c3.7,3.2,7.5,6.5,11.5,9.3
	c1.8,1.6,4.3,0.6,6.4,0.2c7.3-1.8,14.4-4.3,21.9-5c2.1,5.2,4.2,10.3,5.9,15.6c-3.4,4.9-7.9,8.8-11.1,13.8c-3.5,11.1-8,22-11.9,33
	c-1.6,5.3-6,9.5-11.1,11.6c-5-0.8-9.1-4.4-13.8-6.1c-3.8,3.2-7.2,6.7-10.8,10.1c-2.4-3-4.5-6.2-6.7-9.3c-2.9-0.4-5.9-0.6-8.8-1
	c-1.2-3.3-2.1-6.7-3.8-9.8c-4.4-0.3-6.4,5.2-9.4,7.7c-0.2-3.3,1.7-7.8-1.9-9.9c-8.7-6.2-18-11.3-26.6-17.5c-0.6-6,3.9-11.3,4.3-17.3
	c-1-4.4-3.1-8.6-4.4-12.9c6.9-1.5,14.2-1.1,20.9-3.2C1064.3,1400.2,1072.7,1394.2,1081.6,1389.1z"/>
<g id="NORTHERN_IRELAND" transform="matrix(0.476813,0,0,0.476813,-127.859,299.79127)">
	
		<path id="path6609" sodipodi:nodetypes="ccccccccccccccccccccccccccccccccccccccccccccccccccccccccccccccccccccccccccccccccccccccccccccccccccccccccccccccccccccccccccccccccc" class="st1" d="
		M115.1,846.1l38.7-9.8l16.5-26.9l48.6-1.5l5.2-11.4l31.5-20.7l-39.8-12.4l-2.1-10.3l-8.8-1.5L192,723.2h16.5l16.5-18.1l18.1,20.1
		l32-19.1l42.4-1l-10.3-9.3v-19.1l18.6-9.8l12.4-26.3l-4.1-15l1.5-20.7l13.4-16.5l2.1-20.1l30-30h42.4l35.1,13.9l33.6-85.7
		l22.7,13.9l41.3,2.6l20.1-20.1l33.1-2.6l25.8-20.1h32l42.9,24.8l28.9-13.9l27.9,30l-1.5,59.9l10.3-8.3l16.5,12.4l1.5,22.2l-6.7,1.5
		l3.1,8.8l9.3,1l38.2,63l6.2,25.3l11.4,0.5l-9.8-22.7h11.9l22.2,30l1,24.3l-11.4,9.8l-37.7,18.1l-22.2,38.7l1,11.9l13.4-10.3
		l27.4-24.8l64.6-0.5l14.5,38.7l11.9,7.7l1,31l14.5,13.9l-10.8,80.1l-7.2-2.1l-23.8-24.3l1.5-14.5l8.3-5.7l-2.1-26.9l-7.2-21.2
		l-5.7-1l-2.6-10.8l-13.4-7.2l-14.5-5.2l-2.6,19.6l8.8,11.9l10.8,17l2.6,13.9l-2.1,27.9L876.5,906l3.1,6.2l16.5-10.3l15-8.3
		l25.3,29.4L893,980.4l-15-15l-38.2,1.5l-15.5,19.1l6.2,16l-7.2,42.4l-57.3,38.7l-14.5-5.7l3.1-6.2h-15.5L721,1046l-38.2,2.1
		l-4.1,15l-35.6,2.1l-44.4,16l-21.2-21.7l6.2-11.4l-5.2-10.3l13.4-20.1l-23.2-26.3l-11.9,16l-29.4-48l-14.5-8.3l6.7-6.7l-2.1-27.9
		l-25.3-16l-27.4-15l-20.7,30l-12.9,5.7l-15,17l18.1,23.8v20.7l-30.5,9.3l0.5,26.3l-25.8,27.4l-9.3-2.1l-25.8-23.8l-10.8,12.9
		l-30.5-0.5l-39.3-40.8l-35.6,2.1l-17.6-9.8l-2.6-38.2l-23.2-4.6l-12.9-34.1l-13.9,6.2L115.1,846.1z"/>
</g>
<path id="Isle_of_Man" class="st1" d="M418.2,772.3l12.5-15.5l8.7-17.7l8.9-12.1l18.1-8.3l7.2,2.6l-4.9,12.3l2.3,10l7.4,11.9
	l-8.5,15.1l-5.1,12.5l-12.3,9.4l-18.5,19.8l-11.7-3.2l-7.9,1.7l-10.4,7.7l-6-3.4l5.1-7l6.8-12.1L418.2,772.3z"/>
<path id="YORKSHIRE__x26__THE_HUMBER" class="st1" d="M1096.9,894.3c-13.2-24.9-26.5-49.8-39.8-74.6c-0.9-2-2.5-4.9-0.5-6.7
	c5.1-4.3,11.3-7.1,16.4-11.3c-3.5-2.2-6.9-4.5-10.8-6l0-0.1l-5.3-1.7l-1.6-1.2c-13.8-21.4-27.4-42.8-41-64.3c-2.7-4-4.6-8.9-9-11.3
	c-25.9-13.6-52.6-25.6-78.2-39.8c-13.4,9.3-26.6,18.9-39.9,28.2c0.4,6.1-1,12-2,17.9c-6.3-1.2-13.5-2.4-17.6-7.9
	c-2.6-2.9-4.4-6.6-7.7-8.9c-6.3-2.8-14.3-4.2-20.3,0c-1.5,2.3-2.3,4.9-3.4,7.4c-3.1-0.4-6.3-1.2-9.4-0.9c-5.2,2.8-9.3,7.2-14.5,9.8
	c-4.2-0.1-6.9-5.8-11.5-4.6c-8.8,1.7-17.6,3.7-26.4,5.7c-4,0.5-5.4,4.8-7.4,7.7c-2.1,4-5,7.7-6.3,12.1c-0.6,8.1,1.2,16.2,1.3,24.4
	c0,1.7-0.3,3.9-2.4,4.4c-5.7,2.2-12,2.7-17.5,5.3c-4.9,6.6-8.2,14.3-12.4,21.4c3,6.5,6.6,12.8,10.7,18.8c4.9,0.1,9.9,0,14.8,0.6
	c0.7,3.6,1.3,7.3,2,10.9c6.3,2,14.3,1.3,18.9,6.9c8.1,9.1,15.8,18.5,24.3,27.2c0,0,0,0,0,0l2.4,4c-4.1,4.6-10,7.9-12,14
	c-1.7,4.8-3.6,9.6-5.2,14.5c-1.2,3.7,1.1,7.3,2.3,10.7c4.2,0.7,9.9-1.1,12.3,3.4c5.7,8.1,11.3,16.2,16.8,24.5
	c3.2,5.3,9.3,7.4,14.4,10.4c0,0,0,0,0,0l0.2,0.1l2.8,3.2c0,0,0,0,0,0c8.9,15.7,18.8,30.8,28.5,46.1c13.1-1.3,26.1-3.8,39.3-4.9
	c5.9,1.2,11.1,4.6,16.7,6.7c6.6-8,11.1-17.4,16.9-25.9c2.6-4.6,9.4-2.8,12.2-7.1c3.8-5.2,8-10.4,9.7-16.8c2.4-8.9,4.7-17.8,6.9-26.7
	l1-0.3l2.8-1l2.6-1l1.2-1c4.4-2.9,8.6-6.1,12.7-9.3c3.1-2.3,6.1-5,10.1-5.7c13.6-3.1,27.4-4.9,40.6-9.4c5.4-1.6,10.6-3.9,16.2-5
	c3-0.7,5.5,1.6,7.6,3.4c6.8,6.6,13.2,13.5,20,19.9c2.2,2.2,5.4,2.7,8.4,3c6.6,0.6,13.1,1.5,19.7,1.9
	C1105,908,1100.5,901.3,1096.9,894.3z"/>
<path id="NORTH-EAST" class="st1" d="M924.3,673.8c-4.5-4.8-8.9-9.7-13.8-14c-3.7-3.7-8-7-10.1-11.9c-3-6.9-4.1-14.6-8.1-21.1
	c0,0,0,0,0,0l-1-5.5l0,0c0,0,0,0,0,0c-4.8-14.5-9.6-29.1-14.6-43.5l-1.4-4.5l0,0c-5.9-37.7-11.7-75.5-17.4-113.2
	c-0.4-2.9-1.2-6-3.6-8c-17.8-17.9-35.3-36-53.6-53.4c-5.6,4.2-10.5,9.1-15.9,13.5c-7.4,6.9-15.5,13.1-22.7,20.3
	c-0.2,2.4,1.2,4.5,2,6.7c4.6,9.7,8.9,19.5,13.5,29.2c1.4,3.6,4.2,7.2,3.7,11.1c-3.4,5.1-8.4,8.8-12.7,13.1
	c-10.3,10.3-21.3,19.9-31.6,30.3c-7.4,7.3-15.5,13.9-22.5,21.5c7.9,11.1,17.6,20.8,25.6,31.9c-3.7,7.2-9,13.5-12.4,20.9
	c0.3,3.4,1.7,6.7,2.6,10c-2.1,3.9-5.5,7.3-6.5,11.6c2.4,5.7,5.8,10.9,8.9,16.2c6.7-3.7,11.8-10,19.2-12.3c3.5,4.6,6.9,9.3,10.4,13.9
	l4.1,7.8l0,0.6c-1.7,6.2-5.7,11.5-8.1,17.4c2.2,4.3,6.4,7.1,9.6,10.7c-1.4,3-2.9,5.9-4.5,8.8c5.3,7.1,12,13,17.6,19.9
	c3.7,4.1,2.9,9.9,3.7,15c6.4-0.3,12.4-2.5,18.7-3.3c3.3,0.6,5.8,3.1,8.8,4.7c4.2-2.9,8.2-6.1,12.5-8.9c2.6-1.8,5.9-0.5,8.8-0.6
	c1.8-6.7,9-8.6,14.9-9.9c5,1.1,10.1,2.2,14.7,4.5c4.1,3.2,6.3,8.3,10.2,11.7c2.1,1.3,4.6,2,7,2.8c1-5.1,2.5-10.2,1.8-15.4
	c3.8-1.6,7.4-3.5,10.6-6C903.1,688.8,913.9,681.6,924.3,673.8z"/>
<path id="NORTH-WEST" class="st1" d="M800.1,983.2l0.7-3.1c1-1.3,1.5-2.9,2.3-4.4c-1.1-1.9-2.3-3.7-3.4-5.6
	c5.7-9.4,12.1-18.4,17.7-27.9c-6-8.7-12-17.4-18-26.1c-1.7-2.2-3.4-5.1-6.5-5c-0.4-0.1-0.8-0.1-1.2-0.1l0,0l-0.9-0.1l-1.7-0.2
	l-1.7-0.4l-1.7-0.6l-0.9-0.6l-0.8-0.9l-0.5-1.2l-0.4-1.2l0,0c-0.7-2.6-1.9-5.2-2.2-7.7c1.2-6.4,4.3-12.2,6.2-18.5
	c1.5-5.4,6.2-8.8,9.8-12.7c-6-8-13.1-15.1-19.5-22.8c-2.2-2.5-4.2-5.2-6.9-7c-5.2-2.3-11.1-2.2-16.4-4.3c-2.3-2.8-1-7.2-2.9-10.4
	c-4.4-0.7-8.8-0.5-13.2-0.6c-4.7-7.2-10-14.5-12.6-22.7c3-7.1,7.5-13.4,10.7-20.4c0,0,0,0,0,0l1.1-1.9l1.6-2.4l1.3-1.1
	c6-1.5,11.9-2.9,17.8-4.7c-0.3-8.3-1.6-16.7-1.5-25c0.8-4.6,4-8.3,6-12.3c2.2-3.4,3.7-7.6,6.9-10.2c3.4-1.5,7.1-2,10.7-2.7
	c-0.3-4.3,0.4-9-1.8-12.9c-5.9-8-14-14.1-19.4-22.4c-0.7-3.2,2.5-6.1,3.6-9c-2.9-3.5-7-6.2-8.9-10.3c1.3-6.9,6-12.7,8.8-19.1
	c-4-5.7-7.7-11.5-12-16.9c-6.6,4-12.1,9.5-19,12.9c-3.8-5.4-6.8-11.3-10-17.1c-0.9-1.9-2.2-3.8-2.3-6c1.5-3.9,4.7-7,6.4-10.8
	c0-4.3-3.7-8.7-1.1-12.8c3.4-5.9,7.5-11.5,10.9-17.5c-8.1-9.6-15.7-19.6-24.3-28.8c-17.5,16.6-35,33.2-52.5,49.8
	c-3,1.8-6.9,1.3-10,3.1c-8.8,4.4-17.7,8.8-26.5,13.2c-4.4,1.9-4.8,7.1-6.5,11c-3.4,8.5-5.3,17.8-11.5,24.9
	c-5.4,8-12.5,15.1-14.9,24.7c-3,10-6.2,19.9-9.2,29.9c-1,2.3,0.7,4.4,1.6,6.5c9.6,17.5,19,35,28.6,52.5c3.5,6.2,6.5,12.8,10.6,18.7
	c4.8-2.2,9.2-5.4,14.2-7.2c2.1,0.3,3.3,1.4,3.4,3.6c-1.1,6.5-4.8,12.4-5.4,19c1.6,3,4,8.2,7.8,7.8c6.6-7.7,11.6-16.6,17.5-24.8
	c1.5,0.2,2.9,0.6,4.3,1c3,3.6,4.6,8.1,7.6,11.6c3.9-3,7.5-7.1,12.4-8.5l3.4,3.8c0,0,0,0,0,0c2.1,4.9,4.8,9.5,7.1,14.2
	c0.8,1.7,1.5,4.2-0.4,5.4c-4.5,3.3-9.7,5.6-14.4,8.5c1.3,6.6,5.3,12.3,7.3,18.7c1.1,2.8-1.5,4.9-3.7,6.1
	c-6.7,3.5-13.6,6.7-20.2,10.4c-0.5,9.9-1.2,19.8-0.8,29.7c1.5,6.4,6,11.6,9.2,17.3l0,0.9l-0.4,3.4l-0.7,2.8l-0.3,1.1c0,0,0,0,0-0.1
	c-6.2,10.2-11.6,20.8-16.9,31.5c1.7,8.8,6.8,16.7,8.4,25.6c-0.2,0.5-0.5,1.6-0.7,2.2c-6.5,4.3-14,6.8-20.9,10.2
	c1.3,7.4,4.4,14.4,7.2,21.4c0,0,0,0,0,0l2.9,3.9l0.2,0c8.6,7.4,18.5,13,27.3,20.2c2,1.1,2.2,4.1,0.4,5.5c-2.6,2.7-5.6,4.9-8.4,7.4
	c4.4,3.7,11.9,5.1,12.9,11.6c1.6,7.7,3,15.5,5,23.2c4.3,1.2,8.7,2.1,13,3.5c6.4,2.8,12.8-1.5,19.1-2.5c2.6,4.1,4.8,8.4,6.7,12.9
	c8-3.7,16-7.6,23.4-12.3c2.6-3.9,1.1-9.4,3.1-13.6c5.5-4.7,12.9-6.6,18.7-10.9c6.1-5.5,11-12.2,16.8-18c6.3-4.2,13.6-6.7,20.4-10
	c-1-10.9-4.4-21.4-7.2-31.9V983.2z"/>
<g id="SOUTH_WEST">
	<path class="st1" d="M869.4,1452c1.9-2.2,3.8-4.3,5.7-6.4c-8.7-16.7-15.8-34.1-23.8-51.1l-1-2.8l-0.6-3l-0.2-2.4
		c2.6-23.2,5.8-46.2,7.8-69.4c-0.3-4.3,1.4-9.7-2.3-13c-4.4-4.7-8.8-9.4-13.3-13.8c-4.8,2.2-9.5,4.4-14,7.1c3,4.1,6.5,7.8,9.3,12.1
		c-0.2,0.7-0.6,2-0.9,2.6c-16,1.9-32.2,0.9-48.2,2.8c-7.5,2.1-14.4,6-21.9,8.4c-3.1-2.7-5.8-6-9.2-8.3c-6.1-1.7-12.4-1.1-18.6-1.1
		c0.1,8.3,1.7,16.6,1,24.9c-1.6,2.1-4,3.3-6.1,4.6c-7.6,4.4-15.1,8.8-22.5,13.4c0.6,13.5,0.6,27.1,1.5,40.6
		c5.8-3.9,9.1-10.5,15.2-14.1c0.9,0.6,2.6,1.9,3.4,2.5c-1.2,6.4-6.6,10.6-9.7,16.1c-4.5,7.5-10,14.2-15.7,20.8l-0.8,0.6l-6.2,6.4
		l-2.7,3l-1.3,1.4l0,0c-12,13-23.9,26.1-35.8,39.2c-1.2,1.4-2.8,2.8-2.6,4.9c0.1,7.6,2.7,15.1,2.1,22.7c-0.8,3.1-4.4,3.4-7,3.9
		c-16.7,2.1-33.3,4.5-49.9,6.8c-3.9,0.4-8.2,1.1-11.9-0.6c-6.4-3-12.4-6.7-18.8-9.6c-2.1-1.3-4.4-0.2-6.6,0.1
		c-4.9,1.2-9.8-0.7-14.7-1.5l-3.5-1l-3-0.5l0,0c-6-1.7-12.2,0-18.2,0.9c-16.8,2.9-33.7,5.4-50.5,8.4c-4.5,0.3-5.4,5.6-6.2,9.2
		c0.9,5.9,5.6,10.5,6.6,16.5c-1.9,5.1-6.7,8.3-10.2,12.2c-3.5,3.1-6.3,7.5-10.8,9.3c-9.4-0.6-18.1-4.7-27.5-5.9
		c-1.5,4.5-2.8,9-3.8,13.6l-0.2,0.1l-1.3,4.8c0,0,0,0,0,0c-0.6,9.7-0.6,19.4-0.7,29.1c0.1,2.7-0.6,5.6-2.9,7.3
		c-9.9,7.7-20.6,14.5-30.5,22.3c-3,4.9,0.4,12.4-4,16.7c-5.8,3.6-12.5,5.6-18.7,8.6c-6.8,3.3-14.4,4.1-21.7,5.5
		c-1,7.1,0.5,14.4-1,21.4c-6.4,8.2-14.9,14.4-22.3,21.7c-12.2,12.2-25.2,23.8-37.5,35.9c-1.3,1.1-2.7,2.1-4.4,2.6
		c-3.9-1.1-6.9-4-10.3-6.1c-7.6,2.7-14.8,6.2-22.2,9.3c-2.6,1.3-6,2.3-7.1,5.3c-1.7,4.4-3.2,9-4.4,13.6c-1.4,3.8,2.3,6.7,4.8,8.9
		c5.3-0.3,10.6-1.8,15.4-3.9c5.1-4.2,7.2-11,12.5-15c4.7,0.1,8.8,2.8,13.2,4.4c5.6,2.7,12.9,4,16.2,9.9c5,8.4,9.4,17.1,14.6,25.4
		c6.4-4.3,12.1-9.5,18.1-14.4c-3.8-4.8-9.2-8-13.4-12.4c0.5-0.8,1.5-2.3,2-3.1c6.5-3.5,14.2-4.5,20.8-7.6c5.3-4,5.8-12.1,11.6-15.7
		c6.6-2.4,14.3-1.4,20.6-4.7c5.1-8.2,7.1-18.1,12.7-26c9-2.1,18.4,1.3,27.5,1.5c7.5,1.2,11.5-7.2,18.2-8.9
		c5.1-0.5,10.2-0.1,15.4-0.2c3.3,0.1,7.2-0.5,9.9,2c4.7,4.1,8.8,8.8,13.4,12.9c1.6-1.4,3.2-2.8,4.6-4.5l1-0.6l2.6-4.7l1.7,0
		c1.4,0.6,2.8,1.2,4.1,2c1.2,2,1.8,4.4,2.6,6.6c8.1,1.6,16.4,2.6,24.5,4.2c8.5,1.5,8.5,13.9,17,15.2c8.5,1.9,16.9,3.9,25.5,5.1
		c-0.1-4.9-0.9-9.8-1.3-14.7c-0.2-1.7,0.4-3.7,2-4.5c5-2.7,11.1-2.8,15.9-5.8c2.1-3.6,3.2-7.7,4.5-11.6c-2.8-3.4-6.8-6.1-8.3-10.3
		c1.2-4.3,6.2-6.1,9.2-9c-0.6-3.1-2.4-6.5-1-9.6c2.4-6,5.5-11.7,7.9-17.7c1.2-2.6,2.1-5.7,4.7-7.3c4.6-1.8,9.7-0.8,14.4-2.2
		c5.2-3.8,7.7-11.1,14.4-12.8c6.1-1.8,12.5-2.9,18.7-4.4c10.1-2,19.3-6.8,28.7-10.6c0,0,0,0,0,0l0.4-0.1l2.6-0.4l2.8,0.1l0.6,0.1
		c0,0,0,0,0,0c7.2,2.3,15.4,1,22.2,4.7c15.8,10,31,21.1,47,30.7c1.3-3.9,2.2-7.9,4-11.5c2.1-1.5,4.8-1.2,7.2-1
		c21.6,2.4,43.1,6,64.7,8.2c1.7-7.4,0.1-15.7,3.8-22.5c11.4-3.9,24.2-2.1,35.4-6.9c-1.5-2.1-2.8-4.3-4.9-5.7
		c-2.1,0.2-4.2,0.8-6.3,1.1c-2.1-7.1-3.3-14.5-5-21.7c-2.3-0.3-4.7-0.6-7-1c0.4-4.9,1.6-9.7,2.8-14.4c-2.3-0.3-4.6-0.6-6.9-0.9
		c-3.6-5.6-7-11.4-10.8-16.9c0,0,0,0,0,0l-0.5-1.3l-0.3-1.7l0.3-1.3l0.7-0.8l0.2-0.1c3.1-0.9,6.6-0.8,9.8-1.4c4-0.4,8.3-2.1,12,0
		c8.2,4.2,16,9.2,24.3,13.2c4.6-2.9,2.4-8.3,1.8-12.6c-2.5-16.8-5-33.7-7.7-50.5c7.4-3.9,15.7-5.8,23.1-9.6c1.3-3,0.8-6.4,0.9-9.5
		C877.7,1472,871.8,1462.3,869.4,1452z"/>
</g>
<path id="EAST_MIDLANDS" class="st1" d="M1139.9,1008.4c-8-17.4-15.9-34.8-23.6-52.3c-1.3-2.7-2.5-5.7-5.2-7.3
	c-3.8-2.3-8-3.9-11.4-6.8c-6.3-5-14-8.1-19.6-13.9c-8.4-8.4-16.7-16.8-25.1-25.2c-1.6-1.4-3.2-3.6-5.7-3c-8.4,0.6-16.7,2.2-25.1,3.4
	c-4.1,0.8-8-1.6-12.1-0.8c-6,1.1-12,2.2-17.8,3.8c-9,4.4-15.3,13.6-25.3,15.8c-2.3,7.6-4.1,15.3-6.1,22.9c-0.2,0.5-0.3,1.1-0.4,1.6
	l0,0l0,0c0,0,0,0.1,0,0.1l-0.5,2l-1.2,4.1l-1.1,2l-1.3,1.8l-0.3,0.4c0,0,0,0,0,0c-2.5,3.2-4.7,6.6-7.1,9.9c-2.8,4.3-9.6,2.5-12.1,7
	c-4,6.4-8,12.8-11.7,19.3c-0.2,0.3-0.4,0.6-0.5,1l-0.7,1.3l-2,3.2l-1.4,1.9l-0.6,0.8c-5.4-1.6-10.6-4-15.7-6.4
	c-4.4-2.4-9.4-0.6-14-0.2c-9.8,1.2-19.6,2.9-29.5,3.6c-3-0.2-4.2-3.8-5.9-5.9c-8.2-13.6-16.9-26.9-25.1-40.5
	c-2.1-3.9-6.1-5.9-9.8-7.8c-5.6,7.5-10.4,15.6-15.5,23.4c4.1,6.8-3.2,13.4-1.1,20.4c2.1,8.9,4.2,17.9,6.6,26.7
	c0.9,4.2,5.4,5.6,8.6,7.8c5.4,3.4,11.4,5.8,16.2,9.9c2.5,11.7,3.2,23.7,4.6,35.5c0.9,4.8-4.7,6-7.7,8.3c-0.6,7-1,14.1-1.4,21.1
	c12.2,5.7,25.3,9.4,37.7,14.6c-0.4,1.7-0.5,3.6-1.6,5c-5,7.2-11.4,13.4-16.1,20.9c4,2.7,8.2,5.3,12.6,7.2l0.2,0.3l2.2,1.8l1.7,1.2
	c0,0,0,0,0,0c2.3,1.6,4.6,3.3,6.9,4.9c-0.4,4.4-1.9,8.6-2,13c8.2,13.6,25.3,16.6,37.2,25.8c5.3,7.8,8.6,16.8,13.6,24.7l0,0l1.2,1.8
	l1.6,1.9c0.3,2.1,0.5,4.3,0.8,6.4c-1.5,1.2-2.9,2.4-4.4,3.6c2.2,5.6,0.9,11.7-0.4,17.4c-0.8,3.4-4.4,4.9-6.8,7.1c0.9,4,1.8,8,2,12.1
	c-4.1,0.2-10.8,0.5-9.5,6.4c3.2,5.7,8.4,10,11.3,15.9c-3.3,2-6.8,3.6-10.2,5.2c2.6,7.3,4.9,14.6,7.5,21.9c5.8-1.4,11.3-3.8,16.8-5.9
	c0-3.2,0-6.5,0-9.7c8.9-3.4,17.9-6.7,27.3-8.4c3.4,3.1,5,7.6,7.6,11.3c2.8-3,5.4-6.3,7.9-9.5c-2.3-3.7-4.9-7.3-7-11.2
	c9.3-7.9,20.2-13.7,29.5-21.5c2.1-6.3,4.3-12.7,6.1-19.1c4.9,0.3,9.7,1.4,14.5,1.8c1.7-4.4,2.9-9.6,8-11.2
	c-0.8-4.7-2.6-9.4-2.3-14.3c5.7-5.4,13-8.8,18.8-14c1.5-4.7,1.7-9.8,2.3-14.7c-3-2.4-6.2-4.6-9.3-6.8c-0.3-3.4-0.4-6.9-0.7-10.3
	c-3.2-0.3-6.3-0.6-9.5-1c-0.8-4-1.4-8.1-2.2-12.1c0,0,0,0,0,0l0.1-0.4l0.2-2.5l1-1.7l0.5-0.3c10.1-2.6,19-10.1,29.9-9.2
	c7.7,0.1,15.5,0.1,23.2,0c7.2,0,14.6-0.6,21.6,1.7c1.7-5.5,1.7-12,5.5-16.5c6.5-2.1,13.6-1.7,19.8-4.7c3.8-3.7,6.6-8.2,9.8-12.5
	c-11.4-7.2-23.7-13-35.2-20.2c-3.1-1.6-1.9-5.8,0.3-7.7c11.7-13.2,23.6-26.3,35.3-39.4c1.7-2,3.2-4.3,3.2-7
	c0.5-7.4,1.4-14.7,1.8-22.1C1142.8,1014.5,1141.2,1011.4,1139.9,1008.4z"/>
<path id="WEST_MIDLANDS" class="st1" d="M914,1233.2c2.8-3.1,6.5-5.1,9.6-7.9c-4.4-9-9.3-17.7-13.8-26.6c-2-4.9-7.5-6.3-11.6-8.9
	c-10.7-6-23.6-10.7-29.1-22.6c0.2-3.9,1.3-7.6,2.1-11.4c-2.1-1.5-4.2-2.9-6.4-4.3c0,0,0,0,0,0l-1-0.8l-3-1.7l-0.6-0.4c0,0,0,0,0,0
	c-4.3-3-8.9-5.4-12.9-8.7c-0.8-2.7,1.4-4.8,2.8-6.8c4.8-5.8,9.6-11.7,14.2-17.7c-11.6-6-24.5-8.9-36.3-14.6c0-7.8,0.9-15.7,1.2-23.5
	c-0.1-4.4,4.9-5.8,7.8-8c-0.7-10.1-2.3-20.1-3.3-30.1c0.1-5.1-5.4-6.5-8.9-8.9c-5-2.6-9.5-6.3-15-7.8c-4.6,1.5-8.7,4-13.2,5.8
	c-11.8,4.2-16.3,17.4-26.5,23.8c-5,2.7-10.2,5.1-15.2,8c-0.5,3.2-1,6.5-1.1,9.7l-0.5,1.6l-1.2,2.3l-2.1,1.9l-1.4,0.8l0,0
	c-8.6,4.1-16.6,9.1-25.3,12.8c-2.6-4.3-4.7-8.7-6.8-13.2c-4.5,0.7-8.8,1.8-13,3.3c0,4.8,1.7,10-0.2,14.5c-3.9,3.5-9.1,5.6-14.2,6.9
	c-4.7-3.4-6.3-9.4-9.5-14c-7.8,1-15.5,2.4-23.3,3.7c-3,0.6-6.8,0.9-8.2,4.2c-3.1,6.2-6.8,12.1-9.1,18.6c7.9,6.5,16.9,11.7,24.7,18.3
	c-1.6,7.6-5.5,14.3-8.5,21.4c-3.4,8.1-7.5,15.8-10.3,24.2c4.5,2.1,9.2,3.7,13.7,5.9c-0.5,1.8,0.1,4.1-1.6,5.4
	c-8.5,6.9-18.2,12.4-26.1,20c10.9,5.8,21.8,11.5,33,16.8l0.4,0.7l0.7,2.1l-0.2,2.1l-0.9,2.4l0,0.2c-0.1,0.2-0.2,0.5-0.2,0.7
	c-5.7,16.6-11.5,33.1-17.4,49.6c-1,3-2.3,6-2.4,9.2c1.4,4.7,4.1,8.8,6.3,13.2c4.6,8.5,8.4,17.3,13.3,25.6c3.7-1.2,7.3-3.1,11.2-3.5
	c3.3,1,5.9,3.2,8.7,5.1c8.7,6.5,17.8,12.5,26.5,19c8.5-4.7,16.8-9.7,25-14.8c0.6-9.1-1.5-18.2-0.7-27.3c5.5-0.4,10.9-0.3,16.4-0.5
	l1.2,0.2l2.9,0.4l3,0.9l1.7,0.9c2.5,2.1,4.8,4.3,7.1,6.6c5.6-1.7,11-4.3,16.4-6.4c5.7-2.5,12-1.5,18-2.1c9.9-0.8,19.8-0.4,29.6-1.5
	c-2.9-4-6.4-7.5-8.7-11.9c3.8-4.6,10.2-5.9,15.1-9c0,0,0,0,0,0l4.5-2.5l0.1,0c3.3,2.3,6.4,5,9,8.2c3.5,4.3,8.4,7.5,10.9,12.6
	c0.6,5.2,0.1,10.5,0.2,15.8c4.3-2.5,9.1-4.6,12.7-8.2c4.7-9.7,6.2-20.8,11.4-30.3c4.3,0.9,8.4,2.2,12.7,3.2
	c3.4-6.1,4.4-13.2,8.2-19.1c1.3-2.9,4.9-2.5,7.4-3.4c-0.9-3.3-1.6-6.6-2.3-9.9c2.5-2,5.5-3.6,7.5-6.2c1.2-3.3,1.1-7,1.4-10.4
	C918.2,1236.1,912.9,1237.2,914,1233.2z"/>
<g id="SOUTH_EAST">
	<path class="st1" d="M1319.3,1498.4c-1.9-8.9-4-17.7-5.8-26.6c-1.6-7,3.4-13,4.9-19.5c-11.2,1.4-22.1,4.6-33.2,6.4
		c-8.6,1.3-17.1,4.8-25.9,4.1c-7.8-4.6-12.7-13.3-21.6-16.1c-9.2-3.2-18-7.6-27.6-9.6c-7.8-1.7-15.4-3.9-23.2-5.5
		c-1.9-0.1-4.9-1.2-5.9,1.1c-2.4,3.8-3.1,9-7.1,11.6c-5.7-0.4-10.9-2.9-16.5-3.7c-2.7,0.4-5,2.3-7.7,2.8c-3.4-1.6-5.9-4.6-8.6-7
		c-3.9,10.4-7.5,21-11.6,31.4c-1.8,4.3-6.6,6.3-9.3,9.8l-1.5,0.8l-1.4,0.5l-1.6,0.1l-2.4-0.8l-2-1.1l-0.6-0.2
		c-2.6-1.5-5.5-2.6-8.2-3.8c-2.5,2.5-5,5.1-7.5,7.6c-1.6,1.3-3.1,3.7-5.4,2.3c-3-2.9-4.9-6.7-7.2-10.1c-3.1-0.4-6.2-0.7-9.3-1.1
		c-1.1-2.4-2.1-4.9-3.2-7.3c-3.9,3.4-6.1,9.5-11.9,10c-0.2-4.6,0.5-9.1,0.7-13.7c0.2-1.8-1.8-2.7-3-3.6c-7.5-4.8-14.9-9.7-22.4-14.5
		c0,0,0,0,0,0l-0.5-0.5l-1.6-0.9l-1.4-1.1l-0.3-1.5l0.3-3.3l0.6-2.2c0.2-0.4,0.3-0.8,0.5-1.1c0,0,0,0,0,0l0.3-0.7l1.1-2.9v-0.2
		c0.7-2.4,1.6-4.9,1.9-7.4c-1.3-5.6-4.5-10.6-6-16.1c-2-9.5-5.1-18.7-8.2-27.9c-4.7-1.5-10-1.6-14.1-4.1
		c-4.5-5.9-8.8-12.1-12.7-18.5c-2.6-3.6,1.9-6.6,4.9-7.8c4.7-1.3,5.7,6.3,10.2,6.2c3.6,0.2,7.2-0.4,10.7-0.9
		c0.3-2.1,0.5-4.2,0.7-6.3c-7.6-3.1-15.4-5.8-22.6-9.6c1.4-6.3,4-12.2,5.8-18.4c1.1-6.3-2.5-12.5-1.3-18.8
		c3.3-4.9,7.8-8.8,11.6-13.3c-2.9-7-6.1-13.9-9.7-20.6c-9.3,6.3-18.6,12.6-27.6,19.3c1.9,3.4,5.2,6.4,5.8,10.4
		c-1.6,4.2-5,7.3-7.7,10.9c-1.8,1.8-3.6,5.3-6.6,3.9c-2.7-3.9-4.6-8.2-7-12.2c-7.2,2-14.5,4.1-21.5,6.7c0.1,1.8,0.3,3.7,0.5,5.6
		c0,0,0,0,0.1,0l-0.2,2.5l-1,2.6l-0.2,0.1c-7.7,1.6-14.6,5.9-22.3,7.6c-4.1-9.3-7.3-19-9.9-28.8c1.7-3.2,5.8-3.7,8.7-5.4
		c-2.4-3.4-5-6.5-7.8-9.5c-1.8,3.9-3.6,7.9-5.4,11.9c-4.5-0.4-8.8-1.6-13-2.9c-3.4,8.2-5.7,16.7-8.8,25c-1.5,5.6-7.7,7.2-11.9,10.2
		c-2.6,1.9-6.7,3.1-6.9,6.8c-2.2,17.1-3.9,34.3-6.3,51.4c-0.3,3.5-1.2,7.2,0.5,10.5c4.9,10.6,9.5,21.3,14.5,31.8c0,0,0,0,0,0
		l0.1,0.3l2.9,6.1l0,0c2.4,5.7,5.8,11,7.9,16.8c-2,2.2-4,4.5-6,6.7c3.3,5.5,3.2,12.3,6.3,17.9l0.3,1.9l0.3,3.2l-0.1,2.3l0,0.1
		c-0.3,5.5,0.4,11-0.7,16.4c-7.1,3.8-15,5.9-22.4,9.2c2.2,15.8,4.9,31.5,7.1,47.3c0.4,3.9,1.6,7.8,1.2,11.7
		c-1.8,2.8-4.8,4.4-7.4,6.4c-9.1-4.2-17.3-10.1-26.4-14.3c-5-0.9-10.1,1-15.1,1.5c2.5,5,5.5,9.6,8.5,14.3c3,0,6.1-0.1,9.1,0
		c-0.4,4.5-1.3,8.9-2.3,13.3c1.6,1.1,3.4,1.9,4.8,3.4c2,5.6,2.8,11.6,4.3,17.3c6.7,1.6,9.7,8.7,15.9,11.2c4,1.6,8.3,2.4,12.5,3.3
		c2.1-3.2,3.2-7.4,6.5-9.7c7.6-3.1,16-3.6,23.9-5.9c3.2-1.2,4.9-4.4,6.9-7c-1.9-5.3-5.6-9.8-6.9-15.2c0.9-1.3,1.9-2.5,3-3.6
		c11.7,8,22.1,17.8,33.9,25.4c9,0.4,18.2-0.2,27.3-0.7c0,0,0,0,0-0.1l1.1,0.1l1.4-0.2l2.1-1l0.4,0.1c8.9,3.5,16.2,10,25,13.8
		c2-4.3,3.9-8.8,6.2-13c24.5-4.9,49.1-8.9,73.6-13.6c0,0,0,0,0,0l0.6,0l1.5-0.4l2.5-0.8h0.3c13.4,5.5,27.4,9.2,41.1,14
		c9.7,2.7,19.1,7.2,29.2,8.7c5.9-5.6,10.1-12.7,15.6-18.7c2.3-2.4,5.7-3.2,8.8-4.3c10.3-3,20.5-6.1,30.8-9.1
		c11.7-3.3,17.8-16.6,30-18.6c0,0,0,0,0,0l1.2,0l1.9-0.3l2,0l2.5,0.4l0.7,0.2c4,2,8.6,2.9,13.1,3.2c0-4.8-1.6-10,0.8-14.5
		c2.2-4.7,4.6-9.2,6.8-13.9c1.3-2.5,2.7-5.4,5.6-6.4c7.1-2.6,15-2.6,21.5-6.7c9.1-5.5,18-11.2,27-16.8
		C1320.6,1504.1,1319.7,1500.7,1319.3,1498.4z"/>
	<path class="st1" d="M916.6,1614.1c-1.9-0.7-3.4,0.6-4.8,1.7c-8.7,7.9-20.7,10.6-31.7,13.5c-1.3,0.8-2.1,2.1-3.1,3.2
		c3.6,0.2,7.6-0.6,10.7,1.6c4.6,2.7,9.1,5.5,13.7,8.3c4.8,2.9,8.2,7.3,12.1,11.3c5.7-1.3,11.9-2,17-5.1c1.4-3.7,1.1-7.8,2.8-11.4
		c3.6-3.7,9.9-3.5,12.6-8.4c-3.3-3.1-6.8-6.2-11.2-7.7C928.7,1618.8,922.9,1615.8,916.6,1614.1z"/>
</g>
<path id="EAST_OF_ENGLAND" class="st1" d="M1354.2,1180.5c-0.3-1.7-0.4-3.6-0.9-5.3l0-0.4l-1-5.3l-0.7-4.1l-0.1-0.2c0,0,0,0,0,0
	c-1.8-12-3.9-23.9-5.8-35.8c-0.5-4.5-4.6-7.1-7.7-9.9c-14-11.8-27.8-23.7-41.8-35.5c-4.9-4.8-12.3-4.3-18.5-5.8
	c-13.9-2-27.5-6.4-41.6-5.7c-18.4,0.1-36.9-0.1-55.3,0.1c-2.9-0.5-4.1,2.3-5,4.5c-5.6,13.4-11.1,26.7-16.8,40
	c-1.3,2.2-2,5.9-5.3,5.6c-4.5-1.4-8.4-4.2-12.7-6c-4.3,4.9-8.2,10.2-12.4,15.1l-1.6,0.8l-1.4,0.5l-1.7,0.1h-1.4l-0.1,0
	c-4.2,0.5-8.4,1.1-12.6,1.9c-2.1,6.1-3.2,12.5-5.3,18.5c-4.9-0.4-9-3.6-13.9-3.6c-10.3-0.2-20.6,0.1-31-0.1
	c-10.6-0.6-19.8,5.6-29.4,9.2c0.2,3.2,0.5,6.4,1,9.6c3.3,0.4,6.5,0.7,9.8,1.1c0.2,3.8,0.4,7.6,0.7,11.4c3.2,2.3,6.4,4.6,9.6,6.9
	c-0.5,6.6-0.3,13.5-2.7,19.7c-5.6,5-12.4,8.6-18.3,13.2c0.5,3.2,0.5,6.7,2.3,9.5c0,0,0,0,0,0l0.1,0.4l0.5,2.7l-0.5,1.8l-0.9,1.4
	l-1.1,1.1l-1.1,0.8c-0.8,0.2-1.7,0.5-2.5,0.7c-1.5,3.4-3,6.8-4.7,10c-4.6-0.4-9.2-1.2-13.7-2c-0.8,4.1-2.8,8-2.6,12.2
	c3,9.1,8.7,17.1,11.5,26.2c-1.6,4.2-5.4,6.9-8.3,10.2c-1.5,1.9-4.3,3.6-3.7,6.4c0.3,4.8,1.9,9.5,1.8,14.3
	c-1.2,5.9-3.8,11.3-5.4,17.1c7.1,3.1,14.3,5.9,21.4,9c0.2,1.4,0.4,2.8,0.7,4.2l-0.7,5.6l-0.5,2.5l-1.2,0.9l-0.8,0.2
	c-5.5,0.4-11,1.7-16.5,0.8c-2.5-1.9-4.6-4.1-7.2-5.9c1.5,6.2,5.9,11,9.3,16.1c3.6,5.9,12.3,3,16.7,7.5c4.3,9.3,5.6,19.7,10,29.1
	c6.8-1,13.8-0.9,20.4-3c10.1-5.2,19.2-12.2,29.3-17.4c5.5-1.1,11.2-0.3,16.8-0.7c0,0,0,0,0,0l3.3,0.1l2.1,1.7l0.2,0.4
	c0.3,2.4,0.8,4.7,1.4,7c3.1,3.3,6.8,6,10.5,8.7c1.7,1.4,4,0.2,5.9-0.1c7.5-2.1,15.1-4,22.7-5.6c3.9,6.8,7.1,14.4,8.6,22.1
	c-3.4,5.3-8.1,9.5-11.8,14.5c2.3,2.4,4.8,4.6,7.4,6.9c2.1-0.9,4-2.1,6.3-2.5c5.6,0.8,11,3,16.6,3.8c2.9-4.9,4.4-10.5,7.6-15.2
	c2.8-1.5,6.2-0.9,9.3-1.3c10.6-1,21.3-1.9,31.9-3.1c4-0.1,6.1-3.8,8.3-6.6c4.7-6.7,10.4-12.7,14.5-19.7c1-6.8,0.3-13.7,0.5-20.6
	c0.7-5.5-5-8.4-7-12.8c-0.2-1.9,0.5-3.1,2.2-3.9c11-2,22.5-0.1,33.4-2.6c7.1-5.2,13.2-11.7,19.3-18c-3-1.5-8.9-1.6-8.4-6.2
	c2.1-4.6,6.6-7.5,9.8-11.2c0,0,0,0,0,0l3.8-4.1l2.1-2.4c1.5-1.2,2.8-2.9,4.2-4.1c9.1-9.8,19.1-18.7,28.3-28.4
	c2.1-2.1,2.6-5.1,3.2-7.8c4.8-22.7,10.2-45.3,15-68C1352.8,1196.1,1355.5,1188.4,1354.2,1180.5z"/>
</svg>
